/* XPM */
static char *result[] = {
/* columns rows colors chars-per-pixel */
"80 80 103 2 ",
"   c #050706",
".  c #060807",
"X  c #080708",
"o  c #070A0B",
"O  c #0A0B0C",
"+  c #051C04",
"@  c #081E06",
"#  c #0E100F",
"$  c #071E09",
"%  c #0A1E0A",
"&  c #11130F",
"*  c #0D0E10",
"=  c #0F1111",
"-  c #121414",
";  c #141A15",
":  c #161718",
">  c #171919",
",  c #1B1C1C",
"<  c #062203",
"1  c #0A2206",
"2  c #0A2907",
"3  c #0D240B",
"4  c #0E290C",
"5  c #11260D",
"6  c #112A0E",
"7  c #14310F",
"8  c #0F2510",
"9  c #122512",
"0  c #182415",
"q  c #152C12",
"w  c #192E15",
"e  c #172218",
"r  c #1D221D",
"t  c #172D18",
"y  c #1B2D1A",
"u  c #163114",
"i  c #193216",
"p  c #1C3916",
"a  c #173318",
"s  c #1D341A",
"d  c #1E391B",
"f  c #212B1F",
"g  c #203B17",
"h  c #21361D",
"j  c #213A1E",
"k  c #1E1F21",
"l  c #1F2120",
"z  c #1F2821",
"x  c #1F3520",
"c  c #1F3C20",
"v  c #232424",
"b  c #252925",
"n  c #292927",
"m  c #252628",
"M  c #272A28",
"N  c #2A2B2B",
"B  c #223522",
"V  c #283627",
"C  c #243C22",
"Z  c #293D25",
"A  c #2C332C",
"S  c #273C28",
"D  c #2B3C2A",
"F  c #303A2F",
"G  c #2E2E30",
"H  c #2F3131",
"J  c #333433",
"K  c #333A33",
"L  c #383A37",
"P  c #373938",
"I  c #3A3B3B",
"U  c #23411E",
"Y  c #29451F",
"T  c #264223",
"R  c #294226",
"E  c #2C4927",
"W  c #2D442A",
"Q  c #2C4A2A",
"!  c #30432E",
"~  c #314A2C",
"^  c #344433",
"/  c #354B32",
"(  c #394D36",
")  c #3A443B",
"_  c #374C38",
"`  c #3C4B3B",
"'  c #3F533C",
"]  c #404C3E",
"[  c #434443",
"{  c #424D41",
"}  c #474849",
"|  c #4A4B4A",
" . c #455343",
".. c #4B5B47",
"X. c #4A5749",
"o. c #4E5D4A",
"O. c #4F5150",
"+. c #525352",
"@. c #5F6A5E",
"#. c #6C6E6D",
"$. c #707271",
"%. c #7A7C7B",
"&. c #838583",
/* pixels */
"s j i h i u s p s p a d d u q q W i q 9 s q q s 5 9 h q q 9 6 q j S a s a s q 4 h 1 C q C j a q q s s s f h j h s h q 3 q q j q s q q a w q s s q a q y s s a j ",
"i j h i h w 6 s j d d d p p i 6 9 h 4 y T u a w q w 1 h q q i C q 9 s 4 q s x s q s 1 w i q 6 u c C s w g q 7 i p 6 s 3 h w j 5 s q a q i S s C s s s s s s y a ",
"h w R q s q s a a s q 7 p T u w s s 4 i S 4 6 a s s q W s 4 9 4 6 i 3 6 i w a q h w w w 9 q u 6 q i y h w g w h T i 9 5 q 3 q j 9 u s 4 u q C s u q s s q s s a ",
"q 5 s w y t C 9 a 9 9 u d s u q w h s y i 3 s C w ! w i a u i y s s q 1 q 3 S s 3 i S j i q s c S h 5 h j q g g d i 6 s t s 3 s 4 q 9 s 9 4 4 a s 9 C a C C s s ",
"y B q x 8 y s 3 y w 5 6 6 s i h s i w q q q i 6 Z s i h 3 i j u a s s s q s q 9 i C 4 q s c c s q i 5 @ j i g j q s q C i q 5 ! 3 w s a q a s c d s q a C B 5 h ",
"S s 3 y S y 3 B w 9 t 6 2 p i q a s i q 4 a i 4 5 q i Z s q 3 w a s C s q i d s 6 s 9 w s s q C q 5 q i q i 1 6 q B q 9 @ w q W s q 4 q d T W u C s q x a 5 s h ",
"j q j w a S q C w 9 q w h h h w q j q u w q u p s j j j q q j s ^ f B q j s C 6 u i s C s x 4 s 6 i w s j h 5 p 5 y s t 3 y 5 0 y s u d a p p c C 9 a q D 9 S w ",
"j h h h y q q s w 4 q a q w 5 5 h u u u i s 4 6 6 T 3 7 q C q q F O e s 6 a 9 a 9 q u 9 C a i u w i s j j j 6 f j 9 t B t s B 0 9 c 6 d 2 T T a C s B s s B a C ",
"h C i 9 5 W h g C s h q q 6 q q 6 w s 6 p i s s h p q W a q a q F b Z B W q q s s s a a s w h 9 q C q 4 5 h h w C t t 9 3 8 0 % 0 h 7 q u Y U p C a s s q u C ~ ",
"T s s y 9 9 h 5 w q q s h q h w q u u u s i i j E j 6 E C j s C s q w : , s s a s s 6 y j s 9 u s C 3 C 3 t Z t t q t t $ t B s Z w w g g j g 6 E c 3 p s C i d ",
"R j j s B x ! q q q ( s 1 w Z q 6 6 i q s 6 q j 6 1 6 i q q 9 4 C j s - ; 4 S s q R S s y s 4 s d a q S B y f h 0 V 3 C x 8 8 W % ~ g W U 7 U U i C d C d a d d ",
"U Z s j q B i u 9 i u q 3 s 6 i q 3 j s j 4 6 q 6 s 9 s s s d C a s s - > d T u i s s s : y q 5 9 w i % w a + B h C 9 q 3 t s 8 j % q T U p d p i p C u d d d j ",
"j U d s y q h h u 5 7 i q i p 6 q 5 s q s 9 C 9 ; i C S x S i i S 6 s - , ^ K ^ C d h h & f s s j q q 3 h 1 h Z y B s s % 9 d s < i C u U Q Q u i j g 5 u j p p ",
"g j u h s h h p w 7 6 u j u j i q 4 q 3 3 C q ; O u 9 T q j 1 q s 6 C - , P v r s u j i O f a i a s i s 3 5 C v X D 5 h 9 u q d s q u h a c p s 6 1 6 C 5 h h j ",
"p h j s q w g 6 6 7 Z 6 j j i q i h 5 s 6 j 4 , * h u 3 a w C s q C j O = ) M m w f q h r f h s q j a h 3 j i v O ^ @ q W q q s i d p 9 d T u 4 6 u h p h p g j ",
"p h j p s 9 p h O : g i R T i u w ) { 4 h # O C C s d u s s h C 9 j i O - [ N m t h O K t 5 q q 4 9 h q Z i h F , ^ q h 5 R T s s T u Q s s s p = f h i p h 5 j ",
"p p s s q h u q O : q 5 @ q 5 Z 3 - * 8 9 - O q 6 u s C T j q j w s q O - [ J n 0 h O H q h 4 3 9 s d s 5 q 6 F , ^ w w s S ; f p u i i 5 h 7 u & f i q g j q g ",
"p h p 6 i 6 s 1 O : a s q 3 C 5 h V z x y - # i p u a 2 T d p u s w h O - [ G M O & h C h C q q s s C 9 h p 5 K , / q p j R O > T p 7 u 5 g w h & f h h g f f g ",
"p i h h a q s q b V y B 5 h a 5 5 s 9 S O , H s 7 d < T d s U s j u a & > [ A M O ; y i w S 5 9 4 q q u u h j H , F 3 h j T X ; p j j j g g g h - f h D Z 0 w j ",
"g p h T s s w R 4 s * - q 3 C t h 8 9 y O r A s u d 7 g d s C 6 f f s h ] r N N # - h a h j C 3 9 6 u s 5 h p F f ( j p g j O ; 7 j u p i 7 * F w g g f w y g h ",
"p h s u q u 4 C + a - - t 9 a B 9 x 3 V O , K h q d U E d d T 6 X O T j ^ > N N # > u q q q q q d a 9 C 6 s Z F k / i u B j h j p u u 6 s q = D g q w s h q s s ",
"p u s s 9 s t C W u C s r * x y c y 9 V O , K h d T T p s p j j C Z A O O O M N & > 6 3 s q q i W w 6 i 3 2 j K r ^ p i O 0 u 6 p h g h -  .y u q q a s j i i s ",
"7 7 s C a 1 9 s 4 9 4 q ; O C B t 8 y B O , N ! j E T 7 7 j a s g q b O O X N M & ; j h q q s q q q 9 u s q u F r ! q q O % j p u p i q # { h q w w q i i h i C ",
"p h C q i d s u 9 q w s e * q C B s + C O r r n Q a T U p u u T 0 g q j h o.- M - > i i h a u 6 C d S i j j > v v ( w h V h s p p S O y h u ~ h s i s j q q s q ",
"i j j g u q u a a 9 6 6 r O C q w q q S O v r r * O s d j u 5 2 g h 0 g g ..& n : , s p d u i q i q i y q Z - v v ^ f O u w 5 p W ! y w s u 6 h u 6 p s p q 6 i ",
"u j i 5 - - s d C y 5 i r O h 9 3 s C ! O O # = O * > - - : u d g f g j g X.# k , r 6 u i 6 9 q w h 5 , O , J n v l - V 5 7 s i O f 3 q q 6 u u p u h 6 j i j p ",
"4 R p h O = s u w 6 h Z y * Z 6 h ! k Z q w T T F O r r r , u s g 6 q q 7 ..# l b M = N h i i q 1 q g k X - * * & # O g q s s q O D h q p s p j p s j E i Z s 5 ",
"6 u h q B B _ ` C w 5 6 r - q q q S = K C u j p A O , , b N ]  .) ] ] ] ] | - [ O.} o A 6 u a s s q w r O n > > B V f i @ 5 6 9 O h h w q 5 ~ j h 6 j s 6 p s i ",
"i i 5 i i h - O V s w q f * R i u ! = r i d T a 7 j O X N N n n n n n n f n n [ O.| O A s C q w s C u r O J v v i q w q w w h f f f 7 q h w 5 i h 5 R q C h h R ",
"q i h s q q V f h A V S h w ! ) ) ( ! / r B p d d j e y , , > > k n J J J J J [ +.| o A t q s a q q a r X J n n j h i q j w : , 0 3 j i g h w h i h j 9 h q h q ",
"j 6 5 q s C 6 q y * & a p i F O O D Z ^ > > d d u d 7 R X X X X X G [ [ [ [ [ [ O.| o N a y q i C 4 q v # H $.%.&.@.j w +.+.- > f 7 6 7 5 h h S q j j s q q h 5 ",
"Z h i h y C j s A O - i s i D O O N [ I > > D s p a s 6 h j u : , k v n I [ [ +.+.| o A $ s j q B - & N J J &.&.&.%.#.#., > - > y h q j u q 7 j j h h 9 ! g i j ",
"s h W h w C 5 h D * - h j h a d a V O O , A  .d T 7 6 q q q q > , k f n I I } +.+.| * f I { { ) ) I J J H A [ ] I J K P , : - > 9 y 7 h i 1 u g j U q W 5 S i j ",
"S s h 5 5 h s 5 ^ O * 5 u C q j w C C * k N  .s U 6 s q a q q 7 ] X . X f n H J | | | | : , : > , O.[ N N N n v - : > r 0 t y 0 5 s s 6 7 6 p h j p q p j 5 q ] ",
"U ~ p w 3 q Z 5 V = # a s 9 t y q h q * k G { i p d T u 6 s s s ] X X X X - > , P P | } +.+.X.I P P P - # O O b 3 B O ; 9 % w h h w q s g p Y 7 d E 6 i q T h j ",
"j j j 5 h B q h V * - S q 3 s 9 y w 5 i o O : * : 4 q j q d T j 0 w X O # # # X k f } } | +.O.P K H H - O O O b w b # - y q q 5 6 C w Z g Y U Y p p h h i g j i ",
"T u T i 5 t h w i q q - O * = X.s 9 a 6 O * : * > d 3 u 6 u 1 d q q X & N G G X X X v v I P P J k - - j w j s w s t B t 9 9 , , w 3 5 s E g 7 p h u s d d s p j ",
"U p h i C s q h s 5 3 O O O O ` W q q q O * J O > s 5 6 u 6 d q q h X & N H L G n & : : > , > , : - & w w q w w 9 9 C q t 8 O O q w q w 6 U T s u s d q s s j p ",
"p h T h w 5 h h w q q v r o O ` h w q 5 O O J O > 6 d u d C s j ] & # & G n L I n & - > > , , > n n v h q 5 q q t B 3 x q 9 f , w s h p u U j j q 6 u p u u j u ",
"p i R p s w a w 5 w h i s > O ] E q q q O O N O > q h 2 s u j j ] # X & I I J I I [ - - X # O X u h h i q q i w - = - - - : y h 5 i 5 ! j p C s q 6 s C s u d d ",
"p d h d i q i h d s q s d ; O ] q w 6 j O # v m n v n M n n M n n M P P P P [ P I I [ I , , , , r | | | | | | } - = - # # - Z w s i s u 6 j i q q d h w g h d s ",
"u j s C i w a q u q 6 9 c ; O N B b A w V - v b m b b n m m n M n n G J J J n : n I } } G m n v m I I I J J K J = = ` h i h h i h q 7 u 6 6 p 6 p j j h t h q q ",
"U p j q q 3 q s s 9 q h a  . .A O O & s 1 - v m m m m b n m m b n N N N N G , o n } | } | I I I P M b , , , r r = - / q h f Z j j d a a s d u p j a h g h h w h ",
"U u j p q q i 9 q s i s S q j ] N K K O # O O O O O O o O o O X X O X X o O O O : N } } } J J , , : : O   o     i s 6 w Z g h g j c d u d j d h i j h Z Z V 7 6 ",
"p p s s q 3 5 s y a s w h i 4 q a 9 t o O O X X X O X o o o O o X o X o X X O o : n } } [ J G - : : = , > > , r a S T u i s j j d u T p j 6 p j s p i f f f w w ",
"p h h i h q C w C s s q 5 s y s h q q e ; % # ; 9 ; ; 0 9 0 # o o o O O o o v v n n } } G N N O o o O y q q h j 9 s a a h u h d p u p p s d q j j q q 7 g h w 6 ",
"s u p h u u 9 6 a q 3 B 9 q W y % q t s 8 9 a a C a u u T U U d ! R O X * * , v n P G n O O O O O i h y h q C C s s p s s d j p u T p p s 6 u 6 u u q j i s i f ",
"d 6 d s p q 9 i s q a C V q B B 8 S 9 x a 9 9 C 1 S i R U 7 U d q Z O O * * l v N P n k : O O o O q ( h 3 w i i j u p 6 a u u a a 4 p T T < s s 6 4 q 6 s i h h ",
"u h U q q q u 9 4 q q 3 9 a % x B B 9 9 8 8 S 3 x 1 4 R U 7 u p w y o o = = , m N J m , k O o , M i a q w w q q w w w a h 3 s 9 6 4 s a T R 2 7 u a a d C q q q ",
"u s h d s q u a s a 9 4 x 3 S x % B C x 8 1 B t 9 s S 4 d E U a w V o o = = r M J , , k k O O s h 5 5 y T 6 ! i q s 9 q a q a q 4 q u R u a u a a c a 4 s u q C ",
"q u p 6 d q s a s a q s q 9 x t C h t B t y s x w i q s s d p i 9 9 O o = = k M J O k l k O O i s w i 6 6 Z C q w y Z q 0 s 3 3 q 6 q a a d u a a a d a 5 9 q s ",
"s 1 i 5 3 3 4 q q s d S 9 x q 9 q f 5 g S s q t 5 j 6 u i R j 6 u s O O - = , N J O l l v O O a q 6 6 q q 6 5 i j w B S q C B 4 s y C j d 6 a 6 c 4 a q s a a W ",
"j q q a s q u d a s s q c a s s w w w j 0 j i q j j u j q h p q s j O O = * k N J O v v v o * s u u q 6 s j h E q h q 5 w s s 3 C C 3 a q w a S d c 6 a C a B R ",
"i C s W 6 S C 9 d s q u a s 9 a 6 q w f h h h Z h q j q q p h i d j X O * * , N J [ J K J O o 9 s i i u 6 u u T i h w w a S 9 3 u 6 1 q 4 j q s q t x C 9 C q d ",
"j C W d s j a s c q ' 1 i S u q s j h h j Z a i j h 6 p 6 i i p j s o O * - , N J ) I J J O o s s 7 p i j p j h q q s q S 5 j 6 u 3 C q a 9 q a s x a 6 a 6 6 C ",
"q i q 9 C 1 w + a 9 C 9 u 4 d 9 s T j h h h j d h d U j j j p j j j O O * * , N J I P P J O O q 6 j u s u p R j C h a w i 5 i 1 S q q s s s q C s u d q q 9 u C ",
"x t t 9 9 B s 9 w 5 q B i d q C q h j C q j s T u p u T s q p j q i O o = = , N J - G P H O o a 9 a q s u h 6 6 s 5 s s 3 6 a 9 6 5 w h q 6 s c s u i 9 a q s C ",
"s 3 x c 8 s s t t C 9 9 j 9 j + E j p j j s j 6 C u a 6 p i p h p i O O * * , N J o m H G O O x u d 2 j R w S w 5 C 9 9 x 9 s t t w i i d 7 d Q W q s j q s a a ",
"x t t B t 6 8 8 8 9 $ 8 s 6 s 4 U j p T q p i u u T j u d 6 s 7 q u O O * * v N G o z G G o o x q C 9 4 6 w 3 w a h $ s t t 8 x 5 5 j 6 p 2 T j a W 3 j s t a 5 ",
"8 S t a 8 9 x 8 9 B x s i s j U T j i T j 1 s d j u d s d 6 j 5 6 q O O = = * * o G N * O o o t u s R q Z 3 s h % y y y 8 9 8 t @ q w w u p U j d 9 w h q + s q ",
"t s x $ C t B t t % C @ ! h E j p U h u h s E s u d i u h j 6 p 9 s O O - = * o o G m o o o O q q 4 x + i q q q s % t t S 8 t 9 C w S i U U U p d 6 i s s q d d ",
"x 3 x t B 9 t 8 x B % B 6 q T j p u j s q j p j T C T C T s s d A k o * * O O o o G m o * o O = > u s c w Z h h a t x y 9 8 x a h i i E U Y 7 j d u q 6 q 9 9 u ",
"3 S t % s B s 5 8 S y 5 s R u p T h q p j d 1 q d u C d j s s B r O : : : : k : * G N o o * o * * x x 9 5 % 9 5 s q C $ 9 y t R + q s j 7 p p p p 6 w q w i @ t ",
"9 C 9 s i 5 y 5 a s h 5 y 3 i p d p h 4 4 q W w j d d u d s O * O O : k > k v k : * * o * o O O O O O s 3 s 5 C h q s i S 4 t s p 5 4 j 7 Y T T 6 u i s h w i 3 ",
"a q w s w 3 q W s w q h R h q u E g 6 q 6 j u h Z i p u U j O O * * k m m I [ m - * O * O O * o * o * S 9 3 a a 5 w h q 5 j w q g 6 g 5 R g j i s 4 q i s j a 4 ",
"s B w w w q h q C s w i C i j u s i q s j s g 9 h u j h T U O O k G G J J } [ - : * * - N m l l * o o D x 3 9 C i q q 5 w w C p 5 w h q g h j q p s w q q a q W ",
"s 6 5 q w w w s S j s s p p p w i q p s h h g j 6 , , , , , O O * * - v m N H H J : - = * * - O * o * k k ] i a q w i i h w h 5 6 g h q j 6 i i i s i w C w a q ",
"w q C s w q h C j u i T s 6 s w h i s s s g h Z y = : - - - * * o * * k , M N N G k v v * O O * = - - * = k B t w 6 q i w h C C g Z h q w 0 h q y s q i q C 3 S ",
"j j 6 q q 3 C s s d p p j T T T s q g T s j R ! # > l v v v - : * * * * = v v n G I I I = = - > : v f > : : & 6 T j q 5 U h j 6 s W s s i i q d C u s u q i q 6 ",
"j s u p j j u s h i h s d q d u i j h O O O O . O O O O O O O * * * * * = o o O * J P | | | P O O X X O O O O O X O - 6 j h s T j u d R j s C q q q 4 j j u j 5 ",
"i h s i p 7 u p p j s T s u u s i u j O X X X O . O O o . . X O O O O O O O O # o G P | X.| P   O O O O X O O O O O - p s p p s d d d s 6 q s u i s q 5 i i p q ",
"6 j d i h h i i d s s s j d s s u 6 p q u p s s s u d j 4 s s 9 a 4 C y s q j 6 m * o * * * , h p 6 q g j p p j p u i q u i j d s u p 9 6 s s q 6 s h g u i p 6 ",
"p 6 h p w p i 7 i i w 4 p j u d 4 d 6 6 6 7 i q i s i q h j p q q 0 6 % 5 h w w f O O O O O e j h p i i j g q j j i h u a i s s s j 6 ~ j q w q s w s p q u q u ",
"i s 4 h 6 w i 6 q q 6 7 s u d d 6 6 i u i h j i q q ! i j p q p 5 g q g 5 h 5 h 5 - & & - & e i j s s i h y j h g h j g s a 6 s u 6 j h B s 4 h w y 6 h a w u h ",
"w i 6 h q q 0 h f q f 4 3 d d s u u s h q h q h 3 u j j S j i q q f w s f Z @ ! s j T g p 6 u p w C h i g g g g g w q C a 6 q 6 a s q 6 C / q 4 q q w i C s a q ",
"h h q i q h i h j h 5 g d 6 u i u s q h i R 6 5 5 p h 7 4 w i j 5 0 q a 6 h 6 7 u 5 6 u 6 u p d q w C p h g j g j h q w c a a 6 5 u d j T s a q j q s w a s q q ",
"q w 5 q q y h i R g i h p j d 2 s 6 d a 5 q 5 u i Z w 7 i q 5 q S i 9 5 4 q a u p 6 p h u d d U h q h i i j g i j 6 j q 7 h a 6 q s a d c $ C S s a s u s 9 u q ",
"w q C s w s s j j h h C s 6 u 5 d T c d q 5 w s g j 7 i 5 h h 3 a t u s q i q s q h 6 u a d u d i j i 6 j j i g 7 w w 5 s i u p a u d T 6 c W q q q u q s u s s ",
"C i w i 5 5 T s h h j h s j u j 6 a q q i h w j q q i 7 w 0 Z 5 6 a T a 9 a s u u h i p s d p s T h h h 6 j g g g f 6 i q u d a p U Q Q 1 W _ C a s j s q u a q ",
"h h i C j S C h h h Z u T u d 6 q u a 9 Z i R R j p 5 6 h Z % j T a d 6 6 s u s 6 T 6 h C p s u i h w h T p h i j 6 7 3 h s q 2 p d 7 2 a C 4 a 5 w 9 s q 3 C + "
};
