/* XPM */
static char *result[] = {
/* columns rows colors chars-per-pixel */
"80 80 168 2 ",
"   c #051706",
".  c #051C04",
"X  c #081F05",
"o  c #0A1F09",
"O  c #2E000C",
"+  c #31000D",
"@  c #3D0E0B",
"#  c #370110",
"$  c #380010",
"%  c #072304",
"&  c #0A2206",
"*  c #0A2907",
"=  c #0D240B",
"-  c #0E290B",
";  c #11260D",
":  c #112A0E",
">  c #15310F",
",  c #0F2510",
"<  c #112611",
"1  c #182513",
"2  c #152D12",
"3  c #192E15",
"4  c #172D18",
"5  c #192E19",
"6  c #163114",
"7  c #193216",
"8  c #1D3916",
"9  c #173418",
"0  c #1C341A",
"q  c #1E391B",
"w  c #203B17",
"e  c #21361D",
"r  c #213A1E",
"t  c #1F3520",
"y  c #1F3C20",
"u  c #213621",
"i  c #243C21",
"p  c #293E25",
"a  c #273D28",
"s  c #2A3F2A",
"d  c #410B0E",
"f  c #4A140E",
"g  c #541E0D",
"h  c #430012",
"j  c #4B0013",
"k  c #540015",
"l  c #5B0016",
"z  c #41131D",
"x  c #670019",
"c  c #6C001B",
"v  c #73001C",
"b  c #7B001F",
"n  c #56220B",
"m  c #602A0B",
"M  c #69340A",
"N  c #5E0B20",
"B  c #431622",
"V  c #4B1625",
"C  c #4C1A23",
"Z  c #6C1329",
"A  c #75162D",
"S  c #4D202C",
"D  c #54202F",
"F  c #542532",
"G  c #572C37",
"H  c #5D333E",
"J  c #23411E",
"K  c #29451F",
"L  c #264123",
"P  c #294126",
"I  c #2E4927",
"U  c #2C442A",
"Y  c #2C4A2A",
"T  c #30452C",
"R  c #314A2D",
"E  c #354C32",
"W  c #3E563C",
"Q  c #744B2F",
"!  c #69403C",
"~  c #653542",
"^  c #693C48",
"/  c #4E5F47",
"(  c #6B424D",
")  c #70414E",
"_  c #77505A",
"`  c #7C505C",
"'  c #646E5E",
"]  c #767B6D",
"[  c #830021",
"{  c #8C0023",
"}  c #8A6700",
"|  c #8C6901",
" . c #8E6D0B",
".. c #926D00",
"X. c #977100",
"o. c #9C7500",
"O. c #926212",
"+. c #957316",
"@. c #96771D",
"#. c #9D7B25",
"$. c #924155",
"%. c #96475A",
"&. c #855B66",
"*. c #845E68",
"=. c #895E6A",
"-. c #A55E6F",
";. c #BB5E75",
":. c #8E636E",
">. c #927B7D",
",. c #A5727C",
"<. c #B28600",
"1. c #B68900",
"2. c #BE9000",
"3. c #B28A17",
"4. c #A38536",
"5. c #C79700",
"6. c #C79C14",
"7. c #AB8B43",
"8. c #AE9253",
"9. c #AE9855",
"0. c #B3995C",
"q. c #86887B",
"w. c #BA9B60",
"e. c #B39A6B",
"r. c #BAA770",
"t. c #C7AA51",
"y. c #C7B376",
"u. c #3E9CDF",
"i. c #4CABEE",
"p. c #40ACF5",
"a. c #40B1FE",
"s. c #52B2F4",
"d. c #95938A",
"f. c #9E9B93",
"g. c #A9848D",
"h. c #B78D97",
"j. c #A29E96",
"k. c #A7A29B",
"l. c #AEA7A2",
"z. c #AEA8A2",
"x. c #B1ABA4",
"c. c #BBA8A9",
"v. c #BCB2AE",
"b. c #C7B98F",
"n. c #C9B499",
"m. c #D5ADB7",
"M. c #C5BAB7",
"N. c #CDC0BF",
"B. c #E5CCB9",
"V. c #82BFF5",
"C. c #E2BBC4",
"Z. c #CFC1C1",
"A. c #D0C3C1",
"S. c #DCCCCC",
"D. c #DFCFD0",
"F. c #E0CFD0",
"G. c #E3D2D3",
"H. c #ECD6DA",
"J. c #EAD8DA",
"K. c #F0D6DC",
"L. c #FAD4DD",
"P. c #F6DEDB",
"I. c #C6CAE7",
"U. c #F1DDE0",
"Y. c #FFD9E2",
"T. c #F9E3E6",
"R. c #FEE7EC",
"E. c #FFE8ED",
/* pixels */
"0 r 7 e 0 3 0 0 0 8 9 8 8 6 6 2 U 3 2 2 0 2 2 0 = < r 2 4 : : 4 q P 0 0 7 0 2 = e = i 2 i r 9 4 4 7 7 e e w i w 7 e 2 = 2 2 e 2 7 4 : 7 4 6 0 0 4 7 4 3 7 0 7 i ",
"7 r e 7 0 3 6 6 q q q r 8 8 4 2 < e = 7 i 4 7 3 2 5 X e 2 2 3 i 2 2 0 = 4 0 t 7 2 0 X 5 3 2 : 9 q i 0 3 0 2 2 7 0 4 0 = e 5 i ; 0 : 9 3 7 i 0 i 7 0 0 7 e 0 7 0 ",
"e 3 P 2 0 2 7 7 9 7 4 : 8 L 6 4 0 0 = 7 i : : 0 3 e 2 T 0 = 4 = = 0 = 2 6 4 9 2 0 7 3 7 2 2 6 : : e 0 5 7 8 4 q L 7 2 < 2 = : i 2 4 0 = 4 2 i 0 2 4 0 0 4 9 0 7 ",
"2 ; 0 3 5 4 i 1 9 2 2 2 8 q 7 : 5 r 0 3 0 = 9 i 0 T 3 3 6 3 6 3 7 9 2 & 4 = P 0 = 3 p e 3 2 0 q p e ; e r 2 q 0 8 6 = 0 3 7 = 0 = 4 2 0 : - * 0 7 2 i 7 i i 0 e ",
"5 u 2 u < 5 5 ; 5 5 ; : : 0 7 e 0 7 4 2 2 4 7 : p 7 3 e = 7 e 9 7 0 7 0 2 0 2 - 7 i ; 2 q i i 9 2 7 2 o r 7 w r 2 0 4 i 0 ; ; T = 6 0 9 4 7 9 t t q 2 7 a 0 : 0 ",
"a e = 5 a 5 , e 5 < 2 ; * 0 7 2 0 0 7 2 * 7 7 ; ; 2 7 P 0 2 = 7 0 0 i 7 4 6 r 0 ; 0 2 2 0 0 2 ' R.R.E.E.E.R.E.2 2 u 2 , X 5 2 U 0 4 = 6 q L Y 9 i 0 4 0 7 ; 0 e ",
"e 2 r 5 5 s 2 i 3 < 2 3 e e r 3 2 r 2 6 3 2 6 7 0 r r r 2 2 r 7 4 6 7 4 0 0 e 2 9 4 7 i 7 t S.n.#.#.#.#.#.#.#.S.A.x.5 5 , 5 ; 1 3 7 6 q 9 9 9 L t 4 4 4 s < s 5 ",
"r e e 0 5 2 2 5 3 ; 2 0 2 3 ; = e 6 6 7 7 9 : 2 2 i * 2 2 i 3 2 4 7 0 9 2 4 2 7 2 f.j.f.k.k.w.0.9.9.9.9.9.9.9.w.w.e.f.l.1 u u 1 2 q 2 q * L L 8 i q 0 0 0 u 5 u ",
"e r 3 < < U r 0 i 0 0 2 2 : 3 2 2 2 q : 8 7 9 8 w 0 2 Y 0 < 9 < 7 7 i 4 i 4 6 0 U P.P.P.P.P. .4.b.b.b.b.b.b.b. . .4.P.P.5 , 4 o ; e 3 > 6 J q 8 i 9 0 0 4 5 i E ",
"L e 0 5 < < e ; 3 2 2 0 e 2 e 3 2 2 6 6 q 3 6 r P r : Y i i q i 0 4 2 - 7 0 0 7 E.} } } } } b.b.b.b.b.b.b.b.b.b.b.r.| | E.5 u t p 2 3 e w J 8 > I i = 0 0 i 6 q ",
"P r e e a 0 U 3 2 2 E 0 & 3 p 2 2 ; 7 2 7 : 2 r 2 & - A.E.E.E.2 i r 7 4 r = i E.| b.t.5.| b.b.b.b.b.b.b.b.b.b.5.5.5.5.5.} R.v.s o T e P K 8 J J 6 r q y 8 6 q w ",
"r L 0 u 2 e 3 3 2 2 3 3 * 0 : 3 2 * r 0 r : : 2 2 7 D.( S S C G.S.G.S.S.D.G.S.E.} 6.O.f d C C C C C b.b.y.6.+.X.5.5.5.5.2.#.8.N.r ; 2 p 8 8 q 6 7 8 L 6 q q 0 r ",
"J L e 8 7 2 e e 7 ; > 7 2 7 0 : 6 ; 0 2 0 2 i ; 7 l._ Z c c c _ _ _ _ _ _ ` ` ` n M g $ $ $ $ $ # $ ! ! Q o.0.1.5.5.5.5.5.<.3.0.k.7 L 7 y Y Y 6 0 w 7 : > r w 8 ",
"w r 7 0 e e e 8 2 > : 6 i 2 r 8 : ; : ; o i 2 7 4 R.+ b { { { + + O O O $ $ $ $ $ $ $ $ $ # $ $ # $ $ $ f } b.5.5.5.5.5.5.5.<.+.R.2 2 w 9 y 8 9 : = : p : e e r ",
"0 r i 7 2 3 w : : > r 2 r r 7 2 7 e ; 0 2 e = 5 = E.+ b { { { { { { { { + + $ $ $ x x x x x x x x $ # } @.b.5.} } X.5.5.5.5.<.+.E.q 9 : q L 4 : 6 6 w 0 w 7 e r ",
"8 w r 7 3 ; e r 7 7 e 8 L L 7 2 2 2 p ; e p * i i E.O O + + x x x x { { { k + x x x x x x x x x x x $ } } } } $ $ g 5.5.5.5.1.+.E.L 0 Y 0 q 8 6 6 6 w 7 e r ; r ",
"8 q 0 0 2 e 2 2 6 0 2 : X 2 ; p = : 2 , < a ; 2 J.B [ [ [ [ + + + + x x { { [ + x x x x x x x x x x $ d d @ d # $ $ f 5.5.5.1.| +.J.0 0 - w 2 6 8 L 0 6 e e 3 w ",
"8 q 8 : 3 2 0 & 0 i 8 7 2 * p < e 7 , 4 4 < 5 6 E.+ v c v v v v v v h h j j j O h x x x h h x x x x l l l l l l $ $ $ m o.5.1.| 1.7.v.q.; 6 6 0 w 7 e e e 3 3 w ",
"8 w 0 e 7 4 0 4 4 9 4 7 ; u 5 ; : 0 < t 5 4 5 7 E.+ x x x x { { { { + + O + + + O x x x + $ x x x x x x x x x x $ $ $ $ } 5.1...5.} E.x.w w 8 w w 7 e p p 3 3 r ",
"8 7 e P 0 0 7 i , 7 7 7 2 , u 2 u ; 1 & < & 2 0 E.O + O O + + x x x { { { k + + O + O + $ x x x x x x x x x x x x l $ $ $ } o.5.5.| E.x.8 6 e r 2 e e 3 3 3 e e ",
"8 w 0 7 2 4 - r . 7 = t 4 < 5 u 4 t o t t u Z.E.# x x h $ + $ + + + + O + + $ $ $ x x x x x x x x x x x x x x x x x x $ $ $ m 5.5.} E.z.0 2 7 i 0 2 7 0 0 3 0 0 ",
"7 6 0 0 : 0 6 i P 4 i t t 1 5 4 t 5 , 5 , U.^ $ x x x x x x x x j $ $ $ + k x x x x x x x x x x x x x x x x x x x x x x $ $ # @ | T.J r L = 7 6 2 2 7 0 i 3 7 0 ",
"7 > 9 i 4 & 2 7 = 2 = 2   a e u 4 , 0 5 A.^ N l x x { [ [ [ x x l x l l l x x x x x x x x x x x x x x x x x x x x x x x $ $ + z B./ 0 6 t = 0 4 7 7 : 7 7 0 4 L ",
"0 w i 6 7 0 0 9 ; 5 2 7 i 5 ; p t 0   0 E.$ l c x x { { { { x x x x x x x x x x x x x x x x x x x x x x x x x x x x x x $ $ $ B R.6 Y J q 6 R w e 7 0 r 2 6 0 2 ",
"7 w r 0 6 6 6 7 7 2 ; ; e 2 e 2 4 4 2 E.$ x x x x { { { { x x x x x x x x x x x x x b { x x x x x x x x x x x x x x x x x $ $ V E.9 9 6 q 6 : 0 6 2 7 8 q : 2 7 ",
"2 p 0 ; : 6 9 r a 3 ; 0 2 e 3 < = 0 i E.x x x x { { { v x x x x x x x x x x x x x { b x x x x x x x x c x x x x x x x x x $ $ V E.- - 6 > - 7 7 7 6 e : r 7 e 8 ",
"* L 8 w 6 i 6 4 3 : e i 3 < r 2 0 M.R.$ x x x x { { x x x x x x x x x x x j + x x { [ x x x x x x x x x x x x x x x x x x x l # + E.0 2 0 q 0 w 8 e r Y 7 L 0 - ",
": 0 0 2 7 7 9 0 7 3 ; ; 2 2 2 2 2 v.E.l x x b [ { c x x x x x x x x x x $ j l x x c c x x x x x x x x x x x x x x x x x x x l # + E.0 7 2 - R q 8 ; r 0 : 8 0 0 ",
"7 0 ; 7 7 e 7 i 4 0 3 2 7 i i 7 3 M.E.x x x [ { { x x x x x x x x x x x + k x x x x x x x x x x x x x x x x x x x x x x x x l # + E.7 2 e 3 ; 7 e < P 2 i r 0 p ",
"2 0 e 0 2 2 3 2 ; 0 3 p 7 2 q 4 J.( $ x x x [ { { x x x x x x x x x x + x x x { x x x x x x x x x x x x x x x x x x x x x x l $ $ E.r 7 e e 3 e 7 e r ; e 3 e 2 ",
"e ; ; 2 0 i < 2 0 = ; 7 0 7 r w J.$.x x x { { { x x x x x x x x x x + x x b { { x x x x x x x x x x x x x x x x x x x x x x l # $ R.2 > ; e r p 2 i i 3 2 2 e ; ",
"p 0 0 e 5 i e 0 p e 2 7 w 0 0 E.V l x x x { { { x x x x x x x x x x x x { { { x x x x x x x x x x x x x x x x x x x x x x x l + $ + R.x.6 2 : r e e e 2 T 0 7 e ",
"0 e T 7 3 i ; e e 5 * e r r 7 E.Z x x x [ { b v x x x x x x x x j h x [ { b v x x x x x x x x x x x x x x x x x x x x x x j h $ $ + R.x.0 * 0 8 w r 6 U ; i 0 e ",
"p 0 e ; ; e 5 2 U e < = 6 r 2 E.A x x x { { c x x x x x x x x x h + x { { v x x x x x x x x x x x x x x x x x x x x x x x $ $ $ $ O R.z.> ; w w r 8 4 0 r ; 2 W ",
"r R e 3 ; < i ; 0 2 2 5 0 2 E.# x x x x { { c x x x x x x x x x h O x x x x x x x x x x x x x x x x x x x x x x x x x x x $ $ $ $ + R.l.8 8 K > q I : 8 2 P 0 r ",
"w J r ; e i 2 e 0 2 i a 4 = E.x x x x { { x x x x x x x x x x + k x x x x x x x x x x x x x x x x x x x x x x x x x x x x $ $ $ $ $ R.v.8 K J J 0 q 0 0 0 w r 7 ",
"P 6 L 0 ; 3 e 3 2 2 2 < 2 2 R.x x x x [ { x x x x x x x x x x + l x x x x x x x x x x x x x x x x x x x x x x x x x x x x $ $ $ + $ E.x.I w > q q 6 8 w 0 0 7 r ",
"J 0 w 6 i 3 3 e 0 ; o e ] f.:.x x x x { b x x x x x x x x x j j x x x x x x x x x x x x x j h j j j x x x x x x x x x x j $ $ $ $ $ R.x.; J P 7 6 0 r 2 0 0 i 8 ",
"8 8 i 0 3 ; e e 3 2 2 2 x.R.$ x x x x { x x x x x x x x x x + x x x x x x x x x x x x x x + O + O + x x x x x x x x x x $ $ $ $ $ $ E.x.6 w w i : : 6 9 0 6 r 7 ",
"8 0 P e e 3 7 3 ; 2 e e x.R.$ x x x x { x x x x x x x x x x + x x x x x x x x x x x x x x O + j { { O + $ x x x x x x x $ $ $ $ $ $ E.x.i w L 9 2 2 9 L 0 > 0 w ",
"8 8 w e 7 2 3 r r 7 4 S._ + + + $ l x x x x x x x x x x x + x x x x x x x x c x x x x x { O { v + O { $ + + x x x x x x # $ $ $ # # E.z.: q 6 > 2 0 e 0 0 e r 7 ",
"9 y e r 3 5 7 2 2 4 R.S h.L.L.+ + + $ x x x x x x x x x x + x x x x x x x x x x x x x x { + { { { { + O + # + $ x x x $ $ # $ $ # O E.z.- 6 0 : 8 r r e 3 e 2 2 ",
"J 8 r 6 4 o 2 0 i ] g.:.m.L.L.&.&.C + x x x x c x x x k k + x x x x x x x x x x x x x x b k x v { { k l k # + # k k k $ $ $ $ $ # + E.x.9 q 0 0 r 7 e e i e 3 w ",
"L 6 q 9 : 2 4 2 i E.O C.Y.Y.Y.L.L.^ + x x x x x x x x $ + O x x x x x x x x x x x x x x x { O j { { { { b + # + $ $ # # $ + $ $ # O E.z.r r q q 7 r e e p p 3 : ",
"0 8 e 0 2 ; : j.K.+ Y.Y.Y.Y.Y.Y.Y.^ + $ x x x x x x + l x + x x x x x x x x x x x x x x x { O j { { x x c { + $ + + $ $ $ $ $ $ $ E.L q r : 8 r 0 8 5 5 5 e 1 7 ",
"0 q q 0 e 2 i j.H.+ Y.Y.Y.Y.a.a.a.I.L.O x x x x x x + l x x x x x x x x $ + + x x x x x x { x l + x $ $ h x + # + O + $ $ $ $ $ $ E.8 8 0 0 2 r r 2 2 2 0 e 3 1 ",
"6 6 8 0 6 3 2 f.K.+ Y.Y.V.a.p.R.s.a.a.+ $ x x x x x + l x x x x x x x $ $ + + x x x x x x x { [ x + # $ $ $ { + $ + + $ $ $ $ $ O E.9 8 0 : 6 : 7 6 7 r 3 0 3 e ",
"0 > 0 0 8 2 = j.H.+ Y.Y.V.a.p.c.i.a.a.+ $ x x x x x + l x x x x x x l + $ + + x x x x x x x { [ v $ # $ $ $ v + $ $ + $ $ $ $ $ + E.8 L L % 0 0 : * 2 : 0 0 e e ",
"7 r r 2 : 6 2 j.K.+ Y.Y.V.a.p.O u.p.a.O $ x x x x x O l x x x x x x $ $ + + $ x x x x x x x { { { x + $ $ $ $ + $ + + $ $ $ $ + # E.9 6 L P * > 9 9 9 y i 4 2 2 ",
"6 w r 0 9 2 7 9 P E.+ C.V.a.p.p.p.a.a.+ # x x x x x $ + + x $ $ $ $ + + $ k x x x x x x x x x v { { x + + + $ + $ $ + $ $ $ $ V E.< 6 U 6 9 > 9 9 9 9 : 0 6 2 r ",
"6 2 8 : q 4 7 6 U E.+ C.Y.Y.a.a.a.I.L.+ x x x x x x x h $ + + + + + $ x x x x x x x x x x x x v { { { x x x + + + + + $ $ $ $ B E.2 2 7 9 q 9 9 9 9 9 9 = : 4 0 ",
"0 & 7 ; = = - 4 4 7 E.S h.Y.Y.Y.Y.Y.Y.+ x x x x x x x x x x x x x x x x x x x x x x x x x x x v { { { { [ x x x x l $ $ $ $ ) H.0 7 i 0 q : 9 : q : 9 6 0 7 4 U ",
"e 2 2 3 7 4 4 q 9 0 Z.( g.m.m.Y.Y.C.m.+ x x x x x x x x x x x x x x x x x x x x x x x x x x x v { { { [ b l l l l k $ $ $ + ) H.i i = 4 2 4 9 i y t 2 6 i 7 0 U ",
"7 i 0 Y 2 i i 2 0 0 6 S._ + + Y.L.^ + $ x x x x x x x x x x x x x x x x x x x x x x x x x x x v { { { x x $ $ $ $ $ # $ $ + ^ J.3 2 = 2 ; i 4 9 6 6 0 i < i 4 i ",
"r i U 0 7 u 9 0 i 4 W = z.R.$ + + + $ $ x c x x x x x x x x x x x x x x x x x x x x x x x x x v { { x $ + $ $ $ $ $ $ $ # R.M.: 6 * i 2 7 : 4 7 0 q 7 - 0 - : i ",
"4 7 2 2 i & 3 . 0 = 0 2 z.E.$ # $ $ $ x x x x x x x x x x x x x x x x x x x x x x x x x x x x v { x $ $ $ $ $ $ $ $ $ # + R.v.% i 2 4 7 e 9 6 i 0 4 t 4 4 : 9 0 ",
"t 4 9 < , i t < 3 ; 3 u x.E.# # $ l x x x x x x x x x x x x x x x x x x x x x x x x x x x x x v { x $ $ $ $ $ $ $ $ $ $ E.2 5 2 2 = 5 e : 2 q t 8 4 4 2 7 4 t i ",
"0 o t u , 5 0 4 4 i < < d.M.H # + k l x x x x x x x x x x x x x x x x x x x x x x x x x x x x v { x $ $ $ $ $ # $ $ $ $ E.< 0 2 2 3 e 2 q > q Y p 4 7 i 2 9 7 7 ",
"t 4 t t 4 , , , , <   = 0 4 E.# $ $ $ x x x x x x x x x x x x x x x x x x x x x x x x x x x x v { x $ $ $ $ $ $ $ $ $ z T.< , t = ; e : 8 * I q 9 T * e 7 4 7 , ",
", s , 0 < < t , < u t u 7 0 E.# $ $ $ $ x x x x x x x x x x x x x x x x x x x x x x x x x $ $ k { x $ $ $ # $ $ $ $ $ E.< < , 4 & 2 3 7 > 9 J q 0 : 4 r 2 . 7 2 ",
"5 5 t o a , u 5 5 o u o T e R.+ $ $ $ $ $ x x x x x x x x x x x x x x x x x x x x x k $ $ $ + k { x $ $ $ $ $ # # ~ T.4 s , 4 < i 3 p 7 J J J 8 r : 7 0 7 4 0 r ",
"t = t 4 i 1 4 , u u o u : 2 L E.V $ $ $ $ $ $ $ x x x x x x x x x x x x x x x $ $ $ $ $ $ $ { [ x $ # $ $ $ $ + E.N.t 5 < < t 5 e 7 7 U J K > 8 q 6 2 : 2 2 2 2 ",
"& a 5 = 0 u e = = s 5 < 0 P 2 E.V + $ $ $ $ $ $ l l l x x x x x x x x l l l l $ $ $ $ $ $ $ { b x $ $ $ $ # # ( v.d.i o 2 7 5 s . 2 0 r > 8 J 8 8 : 4 2 7 7 = 4 ",
"< t , 0 3 ; 5 ; 0 5 e ; 3 = 7 J.G $ $ $ $ $ $ $ $ $ + l l x x l x x x $ $ $ $ $ $ $ $ $ $ $ { [ x $ $ $ $ # B H.0 4 7 5 i = 4 t 0 : - w 6 J L J : 6 7 0 0 6 4 = ",
"0 4 3 0 2 o 2 U 0 3 2 e p 0 2 6 J.) $ $ $ $ $ $ $ $ $ $ $ $ $ $ $ $ $ $ $ $ $ $ $ $ $ $ $ $ { [ x # $ $ $ + R.7 ; 3 5 2 ; e 7 2 8 : w ; P 8 r 7 0 * 3 7 7 e 7 = ",
"0 e 3 3 5 3 e 2 a 0 3 7 i 7 r 7 J.) $ $ $ $ $ $ $ $ $ $ $ $ $ $ $ $ $ $ $ $ $ $ $ $ $ $ $ $ { [ x # + + H R.2 r 0 2 2 : 2 0 p 7 ; 3 e 2 e r r > 8 7 3 4 4 7 2 U ",
"0 : ; 2 3 3 2 e p i 0 8 8 0 q 2 e v.R.+ $ $ $ $ $ $ $ $ $ $ $ $ $ $ $ $ $ $ $ $ $ $ $ $ $ { x l $ $ $ R.M.p 3 5 ; 7 3 3 e 3 e ; : e w 2 r 1 e 2 7 e 6 6 i 6 7 2 ",
"5 2 i 0 7 2 e i e 7 7 L 8 : 0 3 3 q.z._ $ $ $ $ $ $ $ $ $ + $ $ $ $ $ $ $ $ $ $ $ $ $ $ + { x l $ $ ` x.d.2 i 3 3 2 3 0 3 e p r w p e 2 3 ; e 2 5 0 2 0 4 r = a ",
"r i : 7 2 * i 0 7 e 0 0 q L L L e 2 e S.S $ $ $ $ $ $ $ $ $ $ $ $ $ $ $ $ $ $ $ $ $ $ $ $ { x l $ D F.3 U 7 0 2 p r 6 * i w r : 0 Y 0 0 7 7 6 0 i 2 q 2 2 7 6 : ",
"r 8 2 0 r r 7 7 w 6 r 9 q 2 r 2 8 r 0 7 E.# + $ $ $ $ $ $ $ $ $ $ $ $ + $ $ $ $ $ $ $ $ $ { x l $ E.: > 0 : r 7 6 0 2 : r q q L e 6 w P r 0 i 4 2 2 : r r 6 r ; ",
"2 r 0 7 8 2 2 w q i 9 i 0 0 6 0 7 2 r 8 6 T.~ $ $ $ $ $ $ $ $ $ $ $ $ $ $ $ $ $ $ + $ $ + { x %.E.r r : r ; 7 r 7 w 0 8 0 7 0 0 0 w 0 q - 2 9 6 7 0 2 : 7 7 e : ",
": r w 7 e e 7 7 q 8 0 8 r q 0 q 6 : 8 2 6 P M.H.K.+ $ $ $ $ $ $ $ $ $ $ $ $ $ $ $ + &.K.H.{ x %.R.6 6 0 r w 7 r 0 2 8 2 6 0 i w 0 7 0 : 2 0 0 2 : 0 e 8 6 7 7 : ",
"0 : w 0 3 8 3 2 8 3 2 : 0 r > q - q : : : 2 q.j.j.&.=.=.=.+ + $ $ $ $ $ $ $ + =.=.*.>.k.f.;.-.,.k.7 7 0 r w 2 r r 7 e 6 9 0 0 6 7 r : T i 2 3 2 0 3 0 0 : 7 6 7 ",
"6 e * w : 6 7 : 2 > > : 0 0 q q : : 7 6 8 8 e 7 2 S.S.S.S.F F F F F F G F F F S.S.S.q.w 8 S.S.f.q q 8 6 r 7 r r w e e w 0 9 : 0 6 2 r w u 0 ; e 3 3 2 w 9 6 6 w ",
"3 3 2 e 1 2 3 e 3 2 e ; * 0 r 9 6 9 0 0 2 e 2 e = 6 w i i E.E.E.R.R.E.R.R.R.E.U 9 i L 8 0 - 6 0 7 i e 7 7 r w w w 7 2 i 9 : 2 : 7 0 2 2 r E 4 - 2 2 3 3 r 0 4 2 ",
"e e 2 5 2 e 3 0 r e 1 7 8 : 9 0 6 9 4 r 3 p : ; ; 8 q 2 2 3 7 r 2 1 2 7 2 e 2 2 7 * - 0 : > q q 2 7 i 7 e w r w r e 2 3 y 9 9 : 2 3 9 i P 9 6 4 r 2 0 4 0 9 2 2 ",
"2 3 < 2 2 7 e 5 s e 7 e 8 r q & 8 2 9 9 ; 3 ; 6 3 p 3 > 6 2 ; 2 a 7 2 - * 4 0 7 0 : 0 w 6 8 q r e 2 e 3 7 w e 7 w ; r 2 > e 9 : 2 6 9 q y % i i 0 7 0 3 0 : 4 4 ",
"3 2 i 0 3 0 0 i r e e i 0 2 6 - r y i r 2 ; 3 0 w r > 7 ; e e = 7 4 4 7 4 3 4 9 7 8 : 7 0 q 9 8 6 r 3 2 e p 8 w 3 3 3 = 0 7 2 8 9 6 q L : i U 9 4 2 7 4 0 7 0 0 ",
"i 7 3 5 ; ; p 0 e r r e 0 i 2 8 : 6 2 2 7 0 3 r 2 2 7 > 3 1 p ; : 9 i 9 2 6 9 7 7 w 7 7 0 8 8 0 p r e w : r w 7 w 3 2 e 2 6 0 9 8 y Y Y % U E t 7 q 0 9 2 3 7 2 ",
"e e 7 i e p i q r e p 2 J 6 q 2 4 6 4 2 p 7 P P r 8 : ; e p o u P 6 q - 2 9 6 9 : i 2 e L 8 9 6 7 e 3 e i 0 8 8 r : : ; e 0 6 * 9 y > * 7 i : 0 = 4 2 7 : * i X "
};
