/* XPM */
static char *result[] = {
/* columns rows colors chars-per-pixel */
"80 80 230 2 ",
"   c #180F11",
".  c #1C151A",
"X  c #1B1C1B",
"o  c #221116",
"O  c #24141B",
"+  c #2B151E",
"@  c #231C1D",
"#  c #2A1C1E",
"$  c #371C1D",
"%  c #0E250D",
"&  c #0E2C0D",
"*  c #11260E",
"=  c #122A0F",
"-  c #11300F",
";  c #0F2510",
":  c #132612",
">  c #1A2515",
",  c #152D13",
"<  c #192E15",
"1  c #172718",
"2  c #1C241A",
"3  c #172D18",
"4  c #1B2D1A",
"5  c #163114",
"6  c #193216",
"7  c #1B3916",
"8  c #1C341A",
"9  c #1E391B",
"0  c #23241C",
"q  c #2C231D",
"w  c #262A18",
"e  c #222C1D",
"r  c #33281D",
"t  c #3A2C1D",
"y  c #21351D",
"u  c #2A341B",
"i  c #213A1D",
"p  c #34331C",
"a  c #1C1324",
"s  c #1E1922",
"d  c #231524",
"f  c #2B1623",
"g  c #231A23",
"h  c #2C1B23",
"j  c #221629",
"k  c #2D1628",
"l  c #24192B",
"z  c #2B1B29",
"x  c #331724",
"c  c #331B24",
"v  c #3A1C25",
"b  c #341C2A",
"n  c #3A1D29",
"m  c #291D33",
"M  c #1F2621",
"N  c #1F3420",
"B  c #232523",
"V  c #2B2323",
"C  c #242B23",
"Z  c #2A2B23",
"A  c #26232B",
"S  c #2B242C",
"D  c #262A2B",
"F  c #2B2B2C",
"G  c #3B2322",
"H  c #372826",
"J  c #34232C",
"K  c #3B232C",
"L  c #392A2D",
"P  c #233522",
"I  c #243B21",
"U  c #293829",
"Y  c #2A3C2B",
"T  c #3A3B27",
"R  c #292532",
"E  c #2C2B34",
"W  c #2E2D39",
"Q  c #342535",
"!  c #322D35",
"~  c #3A2D33",
"^  c #332D3A",
"/  c #2D3733",
"(  c #33333C",
")  c #3B323B",
"_  c #383538",
"`  c #343A3D",
"'  c #40171E",
"]  c #43241E",
"[  c #421E23",
"{  c #4D1E27",
"}  c #442225",
"|  c #4B2326",
" . c #482B25",
".. c #42232C",
"X. c #4A252B",
"o. c #4C2B2B",
"O. c #572728",
"+. c #54262A",
"@. c #53292B",
"#. c #47362A",
"$. c #58392C",
"%. c #472A34",
"&. c #572A31",
"*. c #5C2C32",
"=. c #43343B",
"-. c #463738",
";. c #593735",
":. c #682C2E",
">. c #62352E",
",. c #673736",
"<. c #723D36",
"1. c #23411E",
"2. c #254122",
"3. c #284125",
"4. c #2D442B",
"5. c #2F482F",
"6. c #2E4332",
"7. c #37493A",
"8. c #5C452A",
"9. c #44453E",
"0. c #5C4A35",
"q. c #64482A",
"w. c #704F2C",
"e. c #6D532E",
"r. c #76572E",
"t. c #664636",
"y. c #764136",
"u. c #675439",
"i. c #775737",
"p. c #746137",
"a. c #363541",
"s. c #393441",
"d. c #363A42",
"f. c #3A3C44",
"g. c #3C3D4A",
"h. c #3E3E52",
"j. c #473A43",
"k. c #433C44",
"l. c #41354A",
"z. c #423D4D",
"x. c #3B4244",
"c. c #3D434B",
"v. c #3E4A4A",
"b. c #3F4F4C",
"n. c #484846",
"m. c #41454C",
"M. c #424A4E",
"N. c #534A4A",
"B. c #47574B",
"V. c #444355",
"C. c #4C4452",
"Z. c #444C52",
"A. c #4B4B52",
"S. c #4B4B5C",
"D. c #504B54",
"F. c #544B5A",
"G. c #485456",
"H. c #4A5459",
"J. c #4D5A5C",
"K. c #56545D",
"L. c #525C5D",
"P. c #71514B",
"I. c #53615D",
"U. c #454563",
"Y. c #4C4B64",
"T. c #4E4E6A",
"R. c #524F6A",
"E. c #4F506B",
"W. c #525D61",
"Q. c #575866",
"!. c #51516D",
"~. c #545472",
"^. c #585773",
"/. c #5B5976",
"(. c #5C5B7B",
"). c #645F79",
"_. c #546464",
"`. c #5C6469",
"'. c #5B6B6B",
"]. c #586C6A",
"[. c #5E6474",
"{. c #6E6768",
"}. c #636976",
"|. c #677778",
" X c #87493A",
".X c #8A513E",
"XX c #836836",
"oX c #8A5545",
"OX c #8C5348",
"+X c #995C46",
"@X c #A65B47",
"#X c #936B50",
"$X c #AB664C",
"%X c #B46A4D",
"&X c #A1714F",
"*X c #B8714F",
"=X c #B97654",
"-X c #8E7271",
";X c #C37D59",
":X c #6B827D",
">X c #AC825C",
",X c #BC8D63",
"<X c #C5885A",
"1X c #C79965",
"2X c #D19B6A",
"3X c #E5B679",
"4X c #656485",
"5X c #686789",
"6X c #6B6A8C",
"7X c #71738A",
"8X c #6E6E92",
"9X c #6F7095",
"0X c #757A94",
"qX c #767699",
"wX c #7D7DA1",
"eX c #817FA4",
"rX c #748689",
"tX c #7C8795",
"yX c #7F80A7",
"uX c #868A9B",
"iX c #84939C",
"pX c #848AA6",
"aX c #8585A9",
"sX c #8995A8",
"dX c #929AAE",
"fX c #95A4B3",
"gX c #B6A1B2",
"hX c #A8B4CB",
"jX c #ADB8D5",
"kX c #BDCAE9",
/* pixels */
"8 i 6 y 8 6 6 7 9 9 9 6 7 5 5 8 8 < , < 3 , : 6 : , 8 , & , , , 9 P N 8 8 5 5 8 < = 8 < 8 9 3 3 6 9 8 8 y 7 y 7 7 6 < * , 8 y < 5 8 < < 3 , 7 5 3 8 5 8 8 8 8 9 ",
"8 i 6 6 8 6 5 6 9 9 7 7 9 9 6 , , 8 < 8 9 8 5 < 5 < < i , , , , , 5 8 , < 3 3 8 < < < < 8 3 & 5 9 N 8 6 y 6 5 6 6 < 6 = < 8 8 , 6 3 5 < 3 9 P 9 8 8 8 3 8 9 8 3 ",
"8 6 y 6 8 8 8 8 6 8 3 5 9 i < , 8 3 , 8 9 < 5 8 8 8 , y 5 : 5 : , 5 , , 5 , 3 , 8 4 6 < , : 5 5 < 8 8 < 6 6 5 7 i 6 : * : * = 8 5 5 3 5 5 8 I 8 3 5 9 8 < 3 8 8 ",
"4 > 8 8 3 3 8 < 3 5 : 5 7 9 5 < 8 8 6 5 3 , 8 8 y Y y < < 8 5 8 5 8 < & < & 8 8 , < 8 8 6 < 6 6 y 8 < < y 5 7 7 6 6 = 6 6 , % < , , , 6 5 3 , 8 , < 8 3 9 N 8 8 ",
"8 8 3 8 1 , 3 : , , : = = 7 8 8 8 8 < , , , < , 9 8 P 8 , 6 6 5 3 8 8 3 : , 5 5 5 8 < < 8 9 9 6 , < , , y 5 u y 8 8 3 8 8 : , 9 & 8 8 3 3 5 8 9 9 8 3 3 8 8 8 3 ",
"8 , , 4 N 8 : 8 1 * , , = 6 8 6 6 8 < : , , 6 < , < y y , , 3 < 8 8 8 8 < , 8 8 3 3 , 5 3 8 3 8 6 : : 8 6 < , < , 8 4 ; = < , 8 , < 5 < 5 8 9 8 P 8 8 8 , 3 N 8 ",
"y 6 y 8 N N 3 P 8 , < 6 8 8 8 , < 8 5 7 5 , 5 7 6 8 6 7 5 6 8 5 5 5 8 5 8 3 8 < < 5 3 9 8 9 5 5 6 < < 8 y 6 , < , < 4 N , 4 : > 3 3 5 7 5 7 9 i N 8 8 3 8 1 N 8 ",
"P I i 6 1 8 < 9 8 , , 6 < < , = 6 5 5 6 6 5 , 5 6 9 , 9 8 8 8 < < 8 8 5 3 3 , N / 4 6 3 8 8 3 < 6 5 5 i 7 6 < < y , 3 8 3 4 8 > 3 4 5 7 - 9 1.7 i 9 N 8 8 8 8 I ",
"8 y 8 : , y 6 y P < , , , > 5 , , 5 6 5 6 7 7 6 i i 5 3.9 3 5 3 8 8 8 8 9 8 N !.).D 5 4 8 8 8 3 8 P 3 & < 8 y < 4 3 3 3 % ; 3 ; : 8 < 5 6 1.1.7 I 9 3 8 6 6 i 5.",
"I 9 8 1 4 8 y , < , 6 8 < < y , , , 5 5 6 6 6 9 3.9 = i P 9 8 7 3 5 & , 5 5 N g.4Xf.- 8 9 8 , < 5 8 ; < : 4 y , : 4 3 8 ; = 3 N 8 8 6 y 9 1.7 7 2.9 5 8 8 i 8 i ",
"3.i 8 8 8 1 y 6 < < I 8 * < i < , = 6 6 5 = 6 6 = 5 , , 6 6 5 5 8 I 6.7.7.9 8 N V.Q.Y 3 8 8 , 5 5 5 3 8 8 8 4 e : 4 1 N 3 , 1 8 < P u I 1.7 7 7 6 i 8 9 9 9 7 8 ",
"i i 8 < < 8 < , = = 6 < = 5 8 6 , = 6 8 8 , 6 6 = 5 6 8 , 5 - 7 U _.'.|.tX|.7.i 7.dX|.6 5 5 , , < 3 8 , 8 3 , 4 8 8 < : : 3 N , 5 = 6 i 1.7 7 7 7 7 9 8 8 9 i 9 ",
"i 1.7 < y < 6 7 5 = , 5 , 6 7 < 5 = < 6 6 4 8 6 8 < Y '.I.B.b.I.tXiX_.6.4.|.sXrXtXyXdX4.6 6 3 8 8 5 : , < * 8 8 , < 6 4 : , 9 5 = , 7 6 N 2.N 5 < y 7 = 6 i y i ",
"7 i y 7 6 < y 6 5 , 5 5 7 8 7 < = = = * = 8 , 5 6 , 6 7.iXhXhXfXrX|.|.|.tXdXfX|.I.Y tX_.8 6 8 5 8 8 5 , = = y 6 8 < < 8 , , 6 8 5 5 6 9 1.1.9 5 , = 7 y 5 6 7 i ",
"7 i i 8 < y 7 - = 5 y 5 i i 5 5 , 8 < < , < & , : 6 6 = 8 6.7.Y : < 8 P 6.v.2.< 3 < x.tXU < 8 5 : @ @ 2 X 8 8 6 , < = , i 8 8 6 , 6 7 9 7 N 7 & 5 5 7 8 8 i 7 i ",
"7 i i 8 < < 7 u 5 5 7 6 i y 6 6 , 6 6 : 6 y : 9 8 6 6 8 9 8 8 8 5 8 5 P 7 5 Y Y < 4 < tX|.: , X   o O O O g e < < < < 8 6 I 8 , 7 9 3 9 9 9 5 5 5 7 y 6 7 i < 8 ",
"9 9 y 7 = 6 5 < 5 8 5 , , 5 = 8 , = , : : 8 , 3 < , 5 3 N 9 i 8 6 6 * , P 9.-X-XT e y L.hXB.:   O O + f k b B , < < 6 6 y y 6 6 7 7 5 7 , < 5 5 7 y i 5 y 6 6 6 ",
"7 7 y - = , 6 = 8 I 8 5 , = < , 8 4 , 3 , , 3 5 7 5 7 7 2.9 8 5 7 6 u y P.-X#X#XP.u y U dXdXD o + o.#X;.K ..V 8 8 6 , 7 i i i 8 i 7 6 6 5 5 7 6 i 7 y y I < < u ",
"y 7 y 6 < < 8 6 5 8 8 4 < 8 8 , , 3 : 4 3 , 8 5 , 7 - 1.9 9 9 8 y 6 6 y {.eX).F.F.i.4.> s.z.s   O i.>X>X#Xt.H < 8 5 = i i i i 7 7 i 7 i i u 6 7 y 7 u u u 8 < y ",
"7 y 7 y 6 < 8 i : 3 3 8 6 : 8 3 8 : : & , ; < 8 7 7 7 1.9 9 2.6 7 8 y u uXuX5X7XuXP.0 z A 4 8 t P.&X&Xi.,Xt.e 7 6 9 9 8 y 8 7 i 7 9 7 7 7 5 i i 7 6 6 6 y < 6 8 ",
"7 9 9 6 < 7 < 3 % 5 & 8 8 , : 8 3 8 ; 3 N N 4 8 8 9 1.2.9 9 I 5 < 7 y I dXkXsXhXdXF D F 8 : < q .X<X1X1X1X#XY 7 6 y 7 6 7 y y 7 7 5 5 5 6 , 8 i 6 < < 8 y 8 8 8 ",
"6 6 8 8 : 3 5 8 8 8 8 8 N 3 3 1 N 3 : 3 3 3 4 8 9 1.1.7 i 9 9 9 9 i 8 y 7XjXpX'.d.Y.^.a.! @ > #  X<X3X3X>Xi.y i 7 6 6 5 5 7 7 5 7 9 9 9 8 , 6 6 5 = 6 8 8 8 5 8 ",
"5 5 8 P 3 & , 5 = , < 3 : N 4 4 3 ; , N 8 ; , = 9 9 1.7 6 9 6 9 7 5 7 u -XgX{.7 e Y.R.K.! f x v $X$X2X3X=X} # Z y 8 6 , 5 6 6 6 5 5 9 9 8 , 9 < 5 6 < < 8 6 6 y ",
"5 y 9 5 5 6 8 5 , , : 3 8 3 , 8 8 8 % 8 8 5 3 4 9 5 1.1.7 5 5 9 6 6 6 t.*X+X#.7 C m.L.A.+ n v }  Xy.y.oXP.c n ) Q.7.y = < 6 6 6 7 5 1.1.9 5 3.i i 6 7 8 , , 6 8 ",
"6 y 7 5 5 5 3 6 6 3 = 6 6 6 y < 3 < < 5 8 8 , 8 8 8 9 9 9 5 & & y u w +X;X$Xp 9 _ F.n.c $ f n K ..%.&...n x n.|.|.{.L.U > 6 < 5 5 5 7 5 6 5 5 8 5 < 6 7 7 5 < 7 ",
"7 7 7 , < 5 6 9 N 5 : 6 6 < < , : < i P 8 < < 5 8 8 I i 5 , 5 7 7 6 $.=X*X%Xo.( l.j.~ ' v #. .v b n ..n x J L.{.`.`.`.`.L.u 6 6 & 7 - & 5 , 5 5 , < 8 6 y 5 8 8 ",
"5 y y 6 5 8 5 3 6 6 6 8 8 , < , 8 6 8 8 3 5 8 7 7 6 6 8 < 5 8 i y u .X*X*X*X,.=.-.<.<.+.v ~ 9.H x n x x f D.|.`.`.`.Q.}.K.P 7 6 : 8 6 , 5 8 9 i 7 7 y 7 , 7 7 , ",
"6 6 7 6 7 8 6 8 6 < < < 5 > , < < 8 8 P 8 6 9 7 < < < y 6 9 7 i 6 #.$X*X*X%XOXoX<..X@X>.) %.%.*.+.{ { { $ c l.C.D.C.z.j.A * % < 8 < 8 6 5 5 I i 6 = 6 7 < 5 6 6 ",
"6 6 < 6 6 6 6 y 8 8 8 < < y y , < I i 9 8 P N 7 5 y < < 6 9 8 7 P #.$X=X*X%X@X$X,.O.<.[ %.j.&.*.<.O.:.:.[ L `.Q.K.Q.D.k.B , : , 8 = , , 5 > = 6 y = y 5 y 8 y i ",
"y 6 < < < , < , , 4 < i 6 6 7 , 5 i 8 9 9 i 7 9 9 i 9 8 7 7 7 i 9 U +X;X$X%X@X@XO.+.,.^ n n ,.:.&.&.{ { n $ n =.C.F.C.k.e < > 4 < = y 5 < 8 < y y y 7 > < 8 y < ",
"y < = , 8 y , , < % : 8 9 6 8 8 6 6 6 9 9 9 6 9 7 8 5 5 y y 6 5 5 8 #.u.8.$.q.>.} [ K ~ &.@.X.,.{ { x K ) J x :.P.C.Q.C.V , , < 8 > 6 6 , 6 y i 8 y y 6 < < 6 < ",
"y 7 y y 8 y 8 8 8 6 , 7 i 6 7 7 8 6 7 9 9 9 9 6 5 7 7 , 8 y < 0 e C e e C e q c c f ! ^ X.,.+.X.O.O.X.%.~ J + P.{.~ F.D.F : , : < < < 6 7 6 6 i i 8 8 6 y < 6 y ",
"i i I 8 < 8 < 8 P < : 8 i 8 6 8 5 7 6 8 6 7 8 9 9 9 5 , 4 , > 0 c K ..n J n b k d a H 0.@.&.,.@.<.+.&...~ h a ~ P.j.A.F.! , 4 4 : < 6 6 7 6 1.i i i 5 y , 6 8 y ",
"I y y , * 8 8 6 I 5 , < 6 9 6 9 6 8 6 7 5 5 5 8 7 6 6 , 4 2 2 2 O f k d l j d a a a H >.*.,.} v *.o...~ V a a d F.Y.g.[.( = > : * < 6 6 5 7 1.7 7 1.7 y 6 < 8 5.",
"i i 8 6 > 6 y < 6 < < 8 < < 4 < 3 8 = 6 5 : < 6 9 4 C @ d f d d a d . . z b d d d a r O.n *.@.n v =.J + + a a a k R s.V.E ; 5 < 8 4 6 8 y 1.1.7 i 1.5 6 5 y i y ",
"i i i 6 8 8 8 8 , , 9 N < : 4 , 3 < : < 6 5 7 5 8 6 > 2 1 1 @ C > : 2 @ x k d d d h $ $.@.o.o.,.$.j.-.X.n a a d k s.s.g.S > , 5 < 8 8 i 1.1.u 1.6 y y 7 i 7 i 7 ",
"1.i i 6 > 6 6 < , : , 6 < , 6 P 8 < 5 , < , 6 = , 6 , 5 , 5 = 9 < h n n b d a a a #.8.p.8.X.| @.+.%.=.L n . d d g W m.f.W C 8 4 = , , u 1.i 7 6 7 7 8 9 i 8 y i ",
"9 i 7 6 4 8 8 8 8 , * 6 8 < , 8 P 5 , * < < i < 5 7 = < 5 5 6 0 v v k d d a a a a g  .$.0.$.o.>.;.;.&.o.K d d f c a.J.( ( E 4 8 < = < y 7 i 1.9 5 7 8 5 6 7 9 i ",
"7 y i i < < 8 8 < , < < 6 y , 6 8 8 , = < < 6 < 5 5 7 5 6 8 Z v c d a a a a a a a a | <.} r $.$.O.o._ N.n.S f f b s.J.c.a.F 8 8 y < 5 5 7 i i i , , 5 7 y 7 y 9 ",
"7 i i i 8 4 8 8 < 6 6 6 6 7 5 6 y < , * = * * 6 7 = 6 < 6 4 J f d a a a a a a a a . @.<.+.| #.| >.-.9.B.7.A + x k a.W.J.c.g.P 8 , 6 6 y y i 9 6 , , 6 8 8 9 8 6 ",
"7 9 i i 6 < < 8 8 8 5 5 9 5 6 9 6 6 , 8 6 < * < & , < < 3 B x d a a a a a a a a a a X. X| +. .o.;._ 9.n.n.! f f @ D J.J.c.Q.M.< 5 8 8 7 5 8 6 5 5 8 i 8 8 i 9 8 ",
"9 i 9 y < < 6 < 5 , : 5 8 5 9 i 8 6 < < 8 < = P : 5 9 8 e f b d a a a a a a a a a W =. Xo.o.] +.o.! _ 9.9.` S f B B J.L.d.!.).8 8 8 6 7 5 , 6 5 6 9 I 8 8 8 3 5 ",
"1.7 7 5 , , , 8 8 : , 5 5 5 , 6 = 6 < , * , , 6 < 3 8 1 2 h k a a a a a a a a a a ( C.,.,...[ | L ` 7.f.J.J.d.c # D A.M.R Y.qX` 8 I 7 5 7 5 6 6 9 9 8 y P y 8 8 ",
"1.6 8 i < 5 : , < 8 5 8 9 6 6 , , , 6 8 = < * * < 5 3 @ h c d a a a a a a a j a a c.Z.! ~ ! S O S ` M.c.c.J.f.h ) s.M._ A z.wX}.I 9 9 6 8 8 9 8 8 9 y P u y < < ",
"9 7 8 i 8 , , < 8 8 < 8 y < = < y > : y < e C 4 2 q A n b j a a a a a a a a a a d m.S.W a.J G . O a.f.c.Z._.x.D z.d._.J.M.V.qXaXx.6 9 8 i 5 6 i 9 6 8 y e w 6 6 ",
"7 9 9 8 6 < 8 8 8 9 3 , > 8 6 < y Z J n K ..G n b n x c d a a a a a a a a a a j l Z.Z.W ( ..{ O . R d.M.Z.].J.f.d.R ].].W.g.4XaX}.9 9 7 6 6 5 8 9 6 , < y 8 < 6 ",
"6 6 7 8 5 , , , , 5 : , , < P C J n b b v x x x x d d d a a a a a a a a a a a m ^ H.W.E s.J [ O a S x.L.Z.}.'.d.R ! G.J.g.s.~.wXyXB.7 7 7 5 = 5 5 5 , 6 8 8 8 8 ",
"6 < 6 9 6 , = < 3 3 8 8 8 8 F b k f x x @ @ B f f f d f j a a a a a a a a a a R l V.J.E g.^ Q g a A H._.H.W.:Xm.z d.( ( ^ V.!.8XaX}.9 i i = 5 5 , & , , 6 8 6 < ",
"7 8 i 5 5 < , 5 , < 3 , 3 D Q g @ f c @ : 4 0 f x k k f a a a a a a a a a j a j a a.J.W f.a.E s a g c._.J.S.rXc.l./.V.h.T.!.T.(.yX0X7.8 9 8 - 5 5 7 5 9 8 6 3 6 ",
"6 8 i 7 5 5 5 3 5 5 , - M D Z e : 0 f # c f f f f a a a a a a a a a a a a j l a a R J.W a.f.R a a d W J.J.c.].H.z.6X(.T.T.!.!.T.6XaX}.I 6 7 5 5 5 N 3 - 3 3 < 8 ",
"< 5 6 , 8 6 8 3 8 8 5 3 1 1 8 8 C J b h f f d a a a a a a a a a a a a a a m m a a ( J.J.a.a.a.a a a A c.b.c.J.W.) /.5X!.!.!.T.!.4XyXpXv.5 7 5 - 5 7 9 5 - = 5 8 ",
"5 , < = & 3 5 5 3 8 9 6 : 8 1 2 J n f d d d a a a a a a a a a a a a a a j a a a s ( J.J.c.g.a.a a a V ` d.x.c._.m.z.5X(.T.!.!.~./.9XpX}.3 7 3 5 N 5 5 3 3 5 8 2.",
"6 < , 8 8 5 5 6 5 8 8 6 3 5 4 e f f d d a a a a a a a a a a a a a a a j m j a a a c.J._.v.c.b.R a O # d.M.m.g.H.J.g.4X4X~.~.~.~.T.(.yXtX6.5 6 N 9 8 - 5 N 5 N N ",
"= 6 8 I 8 9 9 < 3 8 < < < 2 @ f f f d a a a a a a a a a a a a a a a a a j a a a R c._.H.v.W.H.l X g f ` I.J.H._.H.g.U.5X4X~.!.T.T.!.9XsX].6 3 8 5 8 N N N 5 7 N ",
"6 8 Y I 8 3 8 < 8 B h @ # f c x x f d d a d a a a a a a a a a a a a a a a a a a a.b._._.|.|.c.a X d f R W.].'.|.}.H.h.6X6X~.T.T.T.T.[.pXtXY 5 6 N 3 3 5 5 & 3 8 ",
"< 5 5 = 8 < : & 4 2 e : > 0 # @ # c x f f f d a a a d a a d a a a a a a a a a a a E H.c.x.d.d.A . f g S v.c.c.G.G.R h.8X8X(.U.T.T.T.!.6XsXJ.6 9 N - 9 5 - - 3 N ",
"8 3 3 3 , 8 8 3 < * , 3 3 8 8 1 2 + + c + f d d d 2 8 8 e f d d a a a a a a a a a a R E A ( f.A a d s h E a.E E E A ^ /.9X5X!.~.(.~.~.(.pXrX2.9 8 5 , 3 5 3 N 8 ",
"8 - 3 N , 3 4 3 4 8 : , 8 < 6 : e q h h h # 0 < 4 8 8 6 7 > + f k j a a a a a a a a l v.Z.Z.f.g a a @ c C ^ E R Z.` B g.8X8X(.!.~./.!.~.tXdXb.1.P 5 , 8 3 8 8 8 ",
"N N 3 4 1 3 : ; ; 3 ; , 8 5 6 6 i i y I 8 7 8 6 8 i 9 8 8 > f d a a a a a a a a a a g ` v.g.d.g a a k 0 4 W E ( c.c.R D /.8X5X~.!.T.T.!.(.pX7X2.8 8 8 8 P 5 , , ",
"3 N 3 = 3 4 N ; ; 4 8 4 8 6 9 i 3.i 7 i i = 7 8 9 8 i 8 y @ . a a a a a a a a a d l l ! v.x.^ H + d h , , D d.f.f.W.f.Z d.8X8X5X~.~.!.!.E.0XtX5.6 3 < 5 8 & , & ",
"N N 3 = 3 3 N ; 1 : 4 < i 8 I 2.9 i i 8 y 8 i 9 6 9 8 6 8 y 2 s a a a a a a a a a a h 0.u.e.8.q.H a C % = w #.-.9.N.u.#.U E.9X6X~.U.U.T.T.rXiX5.7 , , 6 5 < 8 8 ",
"3 3 N 3 N , , 3 N N , < = 8 2.i 7 6 7 7 7 7 6 8 i 9 i i i y C S z a a a a a a a s a V p.XXr.w.r. .O 8 8 y u 8.w.r.XXXX$.1 / 4XqX4XT.T.!.!.tXsX5.7 5 , , 3 < 5 8 ",
": 8 3 3 8 4 3 , 3 P < : < y 7 9 1.i 5 6 8 7 < < e 4 P B A b Q z a a a a a s a a a a f e.p.q.q.q.q f X , , , ] q.q.XXe.p , , S.qXwX(.~.T.~.0XtX4.6 5 , 6 < & & < ",
"5 8 3 3 6 5 6 : < 8 y : < < 7 7 i y 7 = = < I B 0 q + + f d d a a a a a a g a a a a a # t ] q w 4 # f , = , = t ] #.G 2 8 = Y 6XaXwX9X(.E.0XsX5.5 6 6 8 8 < < = ",
"8 8 < < < : 5 y y 6 6 < 8 < 8 7 1.7 < = , 6 y P P 4 g f d d a a a a a a d d a a a a B ( m.K q 8 < # c 8 , * , < v ) f.2 6 6 < / Q.qXeXwX4X6XtX4.6 , 5 6 8 8 3 , ",
"< 8 6 < < 6 8 6 P 8 < 6 y 6 6 6 y < 5 6 8 y 4 0 B g g a a a a a a a a X g a a a d B M s.m.) H < 6 0 V y < , < e D c.m.C < 8 i 6 < c.}.eXwXqXtXP 5 , 5 < 8 8 3 8 ",
"8 : , , , 4 6 8 I y 6 9 6 6 7 < 4 < 6 < 4 8 e y < 1 4 8 1 2 X X > 1 2 a d a a a d N D c.c.L t w 8 4 e 8 < 8 6 4 B f.Z.E 4 8 i < 6 7 y m.6XwXqXY < 8 < 5 8 5 < 3 ",
"4 , 8 8 6 < y I i 8 8 i 7 5 6 8 4 < 7 9 7 y y i < < i 9 6 8 < , 1 2 O d a . a d S / M.M.(  .] w , 4 4 < < < 6 , B x.Z.g.M 8 I i y y 6 < Y ^.7XY 6 8 3 8 8 8 < 8 ",
"8 7 < 8 6 , i i 8 8 i 9 9 9 i P 8 6 7 i 7 y y y 8 6 y i 7 9 8 < : 4 > 2 B X f ) x.J.M.k.~ #.| @ 6 7 6 < 8 6 6 6 C W c.B.` P i y 9 I 8 5 8 8 / Y 9 8 8 6 5 , 6 , ",
"y y 5 6 8 8 6 7 9 8 i 8 9 9 9 3 6 i y 7 6 5 5 6 8 6 y y 7 7 7 5 , , 6 < 5 e A._.H.( d.J t ] ' 0 8 5 , = 5 , 9 8 2 ( _.].|.J.P i i 8 9 I 9 8 6 7 < < 5 8 7 < 7 , ",
"6 i 7 6 6 7 6 6 9 9 8 9 8 7 7 5 6 5 i y , 5 6 y 8 8 y y i 6 6 6 3 % 5 6 8 U D.x.R A L r q q p < 6 y 7 < 9 , 6 i < J b.H.rX'.Y 8 8 6 9 9 5 5 5 5 , 6 7 6 6 6 9 8 ",
"5 i y 7 8 8 6 6 8 8 7 8 9 9 8 7 , 5 5 , 5 6 y 6 8 < 6 7 - 6 6 < < % 8 8 8 2 r r r r p y 7 8 5 7 y 5 6 7 i 8 7 i 8 F S H n.f.Z i 7 6 6 3 - 4 N = , 6 8 6 < 7 6 6 ",
"6 5 7 y 6 7 6 5 5 5 5 - 9 9 9 8 = 7 = = , , 6 6 < < 8 < 6 7 9 , = = < * * 6 , < 7 6 y i 6 7 6 9 y 5 6 y i 7 7 y i 6 w p e e 8 6 8 8 5 i I 5 < < 6 < 6 8 6 6 6 6 ",
"5 5 = y , 6 6 < < < = , 6 6 9 9 5 5 6 5 6 7 y 6 < < y < i 9 5 6 > 6 < , , < * < = 5 6 i 8 = - 6 7 7 6 7 7 7 i y y 7 7 6 6 3 5 6 6 5 y i P 8 : 6 8 6 5 8 8 5 6 8 ",
"6 6 = y , , < y 7 w < = = 9 9 6 6 5 6 8 6 y < < = 6 6 7 9 8 7 8 < y < , < y * y 7 6 y y 5 = 5 6 8 i y y 7 y 7 u y 6 < 8 6 - 3 & 6 6 , 6 8 I 5 , < < < 6 9 8 5 = ",
"y i = < < 6 w 8 u < < y 5 , 7 6 5 5 6 8 6 y = = = 6 6 5 < < < y > = , , , y = < 7 , 5 7 5 6 7 9 6 6 P 7 7 7 u i y 8 < 8 9 6 5 3 , 8 8 8 8 8 5 3 5 < 8 5 8 8 5 , ",
"< , , , < < 8 8 i 6 8 8 8 9 5 , 6 5 8 3 < = = 5 7 i 7 5 5 < , < 8 3 & , & 3 6 5 6 5 7 6 5 9 7 9 6 y y < 7 y u 7 7 = w 5 5 7 6 5 , 5 7 3 8 - N 8 8 3 5 < 5 < < 3 ",
"< < 8 8 < < P i i y 9 I 6 5 , = 9 9 9 8 < , < y y i < 5 , < 8 = 6 7 3 8 6 < 5 6 < 6 < 6 8 9 7 8 y i 8 < i i 7 7 5 , , = 5 5 5 7 7 7 7 1.7 N 2.8 8 5 3 8 8 3 8 8 ",
"y 6 8 8 , < P 9 y i P 8 9 9 6 5 5 6 3 5 5 6 6 y 6 5 , , 6 < y < N N N 6 , 5 8 3 - 6 y 7 9 9 9 6 i y y 8 5 i 7 7 i < < 5 5 6 8 5 5 7 2.N & N 2.I 8 8 8 5 5 < 5 5 ",
"i y 6 y y 8 8 8 8 i i 8 9 9 9 5 5 - , 3 y 7 y 1.y 6 5 < y e : y 2.N 7 5 5 6 8 7 6 u 6 7 9 6 7 6 6 y < 6 7 y y 5 7 , , , 6 6 5 - - 7 5 7 3 3 3 9 5 3 8 8 5 , 8 : "
};
