/* XPM */
static char *result[] = {
/* columns rows colors chars-per-pixel */
"80 80 128 2 ",
"   c #161717",
".  c #1B1A16",
"X  c #1D1C1A",
"o  c #211F1B",
"O  c #0E250D",
"+  c #11260E",
"@  c #122A0F",
"#  c #11300F",
"$  c #0F2510",
"%  c #122611",
"&  c #1A2216",
"*  c #152D13",
"=  c #192E15",
"-  c #1D231A",
";  c #172D18",
":  c #1A2E19",
">  c #163114",
",  c #1A3216",
"<  c #1C3816",
"1  c #163418",
"2  c #1C341A",
"3  c #1E391B",
"4  c #22221E",
"5  c #202E1B",
"6  c #203817",
"7  c #21361D",
"8  c #213A1D",
"9  c #201F20",
"0  c #1F3520",
"q  c #252421",
"w  c #292723",
"e  c #262D22",
"r  c #2B2A25",
"t  c #2D2D29",
"y  c #312E27",
"u  c #312E2B",
"i  c #233621",
"p  c #2A3525",
"a  c #243B21",
"s  c #2A3C26",
"d  c #2D362A",
"f  c #2D3C2A",
"g  c #34322E",
"h  c #38352E",
"j  c #323C2D",
"k  c #393C2F",
"l  c #363531",
"z  c #3A3632",
"x  c #353D31",
"c  c #3C3A35",
"v  c #3D3D3A",
"b  c #50271E",
"n  c #4E2F28",
"m  c #502D24",
"M  c #52322B",
"N  c #403D36",
"B  c #413E39",
"V  c #513731",
"C  c #523B35",
"Z  c #513E38",
"A  c #23401E",
"S  c #254122",
"D  c #294125",
"F  c #2F442B",
"G  c #33432E",
"H  c #364333",
"J  c #3B4535",
"K  c #3C4936",
"L  c #3C433B",
"P  c #3C4839",
"I  c #44423C",
"U  c #4A453E",
"Y  c #444C3D",
"T  c #48483E",
"R  c #52443E",
"E  c #5F4039",
"W  c #43513D",
"Q  c #3E4540",
"!  c #444542",
"~  c #4A4641",
"^  c #454B43",
"/  c #4C4A43",
"(  c #474D49",
")  c #4B4C4A",
"_  c #544644",
"`  c #514E46",
"'  c #524E49",
"]  c #465241",
"[  c #4C5245",
"{  c #525147",
"}  c #54534B",
"|  c #5A544D",
" . c #53584B",
".. c #5A5A4E",
"X. c #4F4F51",
"o. c #4E5151",
"O. c #535453",
"+. c #5A5552",
"@. c #555A54",
"#. c #5D5B53",
"$. c #565758",
"%. c #57595A",
"&. c #595A5C",
"*. c #6A4E44",
"=. c #635247",
"-. c #6B564A",
";. c #625C55",
":. c #625E59",
">. c #5E6155",
",. c #646057",
"<. c #65635B",
"1. c #6A655F",
"2. c #6B695F",
"3. c #756358",
"4. c #78685D",
"5. c #5D5E60",
"6. c #5E6061",
"7. c #626365",
"8. c #6B6761",
"9. c #6D6A62",
"0. c #656769",
"q. c #716C65",
"w. c #746E69",
"e. c #786F6C",
"r. c #717065",
"t. c #75736B",
"y. c #7A736E",
"u. c #847C77",
/* pixels */
"2 8 , 6 2 , , , 3 3 < < 1 > , 2 7 * * ; , * * : @ * 7 * O * * * 3 a 8 2 2 , * , : @ < * 8 7 > > > 2 2 2 7 7 6 3 1 2 : + * , 7 , > , ; > * * , , ; 2 , 2 2 2 2 2 ",
"2 8 6 = 2 , > , 3 3 , < 3 3 , * * : : < a , * : * * : 6 * * * * * * 1 * ; , , 2 * * : * , , * > 2 a 2 = 6 , , , , * , + : , 2 * , , , ; , 8 a 2 1 2 2 , 2 1 2 2 ",
"2 : 7 : 2 , 2 2 1 , ; > 6 8 > * 2 , % 2 2 * , , 2 2 * 7 2 % > % * 2 % * , ; ; * 7 : * : * @ > * , , : 5 = , > 2 8 : @ + * @ @ , > ; , * : 2 a 7 * ; 7 2 : 2 2 1 ",
"2 % 2 2 2 ; 2 ; 2 ; % > 3 6 , = , 7 1 > : * 1 7 7 D 7 : > , , , > 1 ; @ * + 1 2 * , , 2 = : 1 2 7 7 = * 6 > < 6 1 , * , : * O ; * % * , > % > 1 > * 2 ; 2 0 2 2 ",
"2 : 2 2 ; ; : % : * % @ @ < < 2 2 2 : * * * : * 2 7 a 2 * , , , 2 2 2 2 * * > ; , 7 ; , 7 1 3 , * * % * 7 , 6 6 , 1 ; i , @ @ 8 @ , 2 , , > 2 3 3 2 ; ; 2 2 : 2 ",
"i % % : 0 : % 2 % + * * @ , 2 , , 2 , @ @ * , * * > 7 8 * % * : ; 2 2 2 * * 2 , * ; * * 2 2 2 1 , @ * , , * * , * 2 ; % @ : * 7 * : , ; > 1 0 < a 2 2 2 ; % 0 2 ",
"8 , 2 2 0 0 : 7 2 * * , 2 2 2 * * 2 , , > # > < , 2 2 < , , 2 > ; > 2 % 2 2 a 2 2 a 2 2 2 1 ; * , ; * 8 6 , @ = * = 2 0 % : % & = = 1 1 > 1 < a 8 ; 2 : 2 ; i 2 ",
"8 a 8 : ; : * 7 7 * * 2 * : * + , * , , , < * * > 6 * 2 2 2 2 ; ; 2 7 2 e x >...<.<.H 2 7 2 , > 2 : > 6 7 , = 5 7 : % 2 ; : 2 & * 1 > < > 3 A 3 a 2 0 2 2 2 2 i ",
"2 7 2 + % i 7 7 7 : * * * * = * * > , > , < < < 8 8 * D 2 > 2 , 7 p d i p / | <.8.:./ [  .D 1 , 1 8 ; @ % 7 7 = : : ; % $ % ; $ * 5 * > > A < 3 D 2 2 2 1 2 a F ",
"8 7 2 ; ; 2 7 * : * , , = = 7 * * > > > , , , 7 D 6 @ 8 a 7 2 1 : : d p d | ..;.2.q./ Y W ] * ; 2 2 O ; % : 7 * + : : : $ % : 2 : 7 6 7 < A < < S 3 * 1 2 3 3 8 ",
"D 8 2 2 2 ; 7 , * * s 7 + * 8 = * @ > > > @ < > > * @ > , 2 ; * : i d s k E 3.-.*.t./ P H W % > ; > ; 2 2 2 : 5 % : : i ; ; ; 0 * 8 7 s A < A < < 7 3 2 3 2 3 3 ",
"8 8 2 , : : * * @ @ > > @ * 7 , * @ , 7 7 @ , : @ > > ; > : 2 2 e x d s h C | 4.=.9.{ ^ K W * 2 2 * 2 ; 2 : % 7 2 2 * % $ 2 2 % * + < 8 A < < < < 2 3 1 2 3 8 3 ",
"8 A < > 7 = , < > @ * , * > < * @ @ > = 2 : 2 > 2 * 2 a a 0 2 H z / I  .h c ~ #./ r.+.#.! Y ^ <.,.K * @ * + 7 , * , = , % * 2 > @ * 6 > A S 8 > , 7 , @ , 6 8 6 ",
"< 8 7 6 = 2 7 , , @ > * 6 7 6 > @ @ @ @ @ 2 * , , * ; 3 2 2 7 I z v ' #.! v ' ) / I d l l I #.8.@.G > * + * 7 , 6 * : 2 * ; : < , * , 3 3 3 3 , * @ < 6 > 2 2 3 ",
"< 8 8 2 = , 6 @ @ > 2 < 6 7 , * > 7 : * * * @ * @ : * * > 2 G B g z ` | +.c l z z r h z z z c ' <.@.H 2 + , 7 * * = @ * 8 7 , , , , 1 3 3 0 , # > 1 2 2 6 8 < 7 ",
"< 8 8 2 , : < 6 > , < , 8 7 , < @ : , * , 7 % 7 1 , > , 7 J U z u g w l } | r r t g z z z z z z U 9.r.P , > 7 : * : : , : 8 2 > 1 3 , 3 < 3 > # 1 , 7 < 2 6 * 7 ",
"3 < 6 2 * : > * ; , > * * > @ 6 * % % ; % 1 ; , , * , 8 P I z z z z r t r u z l y z N z z z z z z U 2.r.K > % * * * , 2 2 7 , < 3 < , < * , , , < 3 3 , 6 2 : , ",
"< 3 3 * @ * , @ 2 a 2 , * @ : % 2 , % ; * % , , < D Y / I z z U B u w r t t z z y +.} z c z z z c z ~ w.r.W > 3 2 < * 2 8 8 8 2 8 < > > * , > 2 8 < 7 8 7 5 = 6 ",
"6 < < 2 * ; 2 , > 2 2 : * 2 2 * ; : % 2 ; * : , , G P ~ h B U ;.N z N v g u B B / ` N h I / z z #.c c | ,.9.K , 2 > @ 6 8 6 2 6 6 8 < 8 6 6 < 6 6 6 7 8 7 6 5 7 ",
"< 7 2 7 : 2 2 8 * * ; 2 2 * : * , % % % % % ; , > < / ~ B #.' / u w y w 9 t B B t q t N +.` z z | v c c g ~ >.3 , 7 6 3 3 2 3 8 < < < 6 6 > 7 6 , , = 7 7 = , , ",
"< 6 < , * > ; 2 @ * @ 2 2 % % : ; 2 $ % 2 0 2 0 F H B l N h h z u r z u t 9 B g w t w y z u z z z z N / B I #./ G 6 < > 2 2 6 3 < < 1 > , * 2 7 2 * : , 7 , , 7 ",
", , 2 2 * > * 2 2 1 2 2 : : ; : : 2 ; : ; 2 1 x I [ } c z z I B u z t w t t v g t r y t r y l z z h y B ` q.:.B ^ j , > , 3 , > < < > < 2 * 2 , : * 2 2 2 2 , 1 ",
", * < 7 > * * ; % * > ; ; : = 2 ; % % 0 2 O % ; p  .+./ ' +.' g q t u r t r N l t r u z B N w w w y r y N 8.t.<.x : > * > , , < < > 3 3 1 * 2 , : , * , 2 , , 7 ",
", 6 7 > > 1 1 > @ ; * ; i ; @ 7 2 2 O 2 2 : * ; s f K / B z z w r l r q w r z N z r g t y ) z g g I U I z I  .<.Y 2 : * * , , < > < A 8 3 , S 8 < , 2 2 > * , 2 ",
"< 2 < , > , , 2 2 * @ , : > 7 = ; : * , 2 , ; , 2 2 S { I z z g l l l t t t g v g g q x I u 9 u h / { ,./ c 7 a 8 2 * * * = * > > > < > > > > 2 , * , < < * * , ",
", 7 < * > , > 3 2 ; * : 7 = * * % ; 8 8 2 * * , 2 2 a T T h z h t v x l w r r t r h g v 7.5.X.) B h ` { h t X - , , , * @ = < < * > > # > # > , > * < , 7 , 6 7 ",
"> 8 7 < , 1 ; , , : : , , * , * , : 2 7 ; : < < 3 , 8 h h g g w X g h t w r g u t z v ' 5.%.5.5.5.X.^ l h h t l 8 , * * @ : 2 : * , , * * < 6 8 < , 7 7 > < < * ",
", , , > , , > 2 , , = * * : * * : 2 7 7 2 2 3 < > 2 T ~ ` y h g   4 h l r r d t t l I } 7.5.%.%.&.&.5.$.z h l I j 7 * * + @ + * 2 ; 2 2 > > a 8 6 @ , < * > 2 1 ",
", , * , , , , 8 , 7 , * , 7 7 * * a 8 3 2 8 0 < G G ` / ` I U I 4 . t r q r u t u g z O.7.&.&.&.&.&.&.&.&./ l d 2 , * : , * + * 2 + * @ * @ * , 2 * 7 * 2 7 2 6 ",
"7 , , * : * : * * , : 8 , > < @ > 8 3 3 2 8 3 3 [ <.2.2.` } B T 4 . q r q r u u t t z O.7.&.&.&.&.&.&.&.&.&.o.x 7 , = = 2 : * 5 5 @ 7 > , : : 7 7 7 2 * : 7 7 > ",
"7 : @ * 7 7 * * : + @ 7 7 , 2 7 < , , 3 8 3 , 3 A { #.q.| +.B ` 4 o c g q r l l t r v ) 7.&.&.&.&.&.&.&.&.&.&.&.P 7 , * @ * % : 5 * , , * , 7 a 2 7 7 , = * 2 = ",
"7 2 7 7 , 7 2 , 2 : @ < 6 < < 2 , , , 8 3 2 < 1 < J ` 1./ c I z . g / / c u l l z ` ' O.6.&.&.&.&.&.%.&.&.&.&.&.&.v = , * @ & % = , * , , < , 8 6 2 2 = 2 = 2 2 ",
"8 a 8 7 : 2 = , 8 : @ 2 3 3 2 2 , , < < 2 1 1 3 3 j } 8.v l v 9 o y z N / ` ' ' I B z ) 6.5.&.&.&.&.O.o.$.$.&.&.&.&.H 2 ; ; 2 : % = , , , < A 6 8 < < 8 * , 2 7 ",
"a 7 7 @ @ , 7 , 8 , * ; , 2 , 3 , 2 , > , > , 1 3 p ;.#.#./ z 9 h I I N z N B N g z c X.7.$.&.&.%.$.L Q L L $.o.%.&.&.P % % * % + = , , , , A 6 8 A , 7 2 * 2 G ",
"6 a 7 , @ , 7 : , : ; , : ; : : : 2 @ : * * ; a P Y <.' I v z u I I B z z z N z z z z $.7.$.5.&.&._ Z _ / v Q L ( &.&.&.H O % : 7 = : 7 6 A A 6 8 A : > , 8 3 8 ",
"3 a 8 = , 7 , , * * 7 8 ; + 2 % ; : * , , * 2 F L O.;.:.z v v ! I R I h z h r w t z c 5.5.5.$.&.+.n b m n _ Q ^ ^ %.5.%.&.P % , = , 2 8 A A 6 A < 3 7 < 3 3 8 2 ",
"A A 8 , * = 7 : * * * = : * : i 2 * * @ : * , j ^ ( ' +.t u v I _ ~ z z z o 9 o X u I 7.5.&.&.&.+.C m m m _ o.L o.&.&.&.&.&.P : * % * 7 S 6 , < < 2 2 3 2 6 7 8 ",
"3 8 < , : 2 = 7 = * + , 7 * * , 8 : * @ ; : P #.$.( ! u w t ! v I B z z r   o q X 9 v 0.&.&.&.&.+.V M M M R ^ L Q &.&.%.&.&.%.H * * , 7 < 8 S 2 > 2 3 > , 3 3 6 ",
"< 8 8 2 = = 7 7 = * = = , 6 * , 7 = * * d ) ;.;.#.) ! t g t B N z z z u 9   q q . X ) 7.&.&.&.&.&._ C M M I L ^ ( &.&.&.&.&.&.O.8 , : 2 < 8 a 3 * * > , 2 2 3 3 ",
"< 3 a 8 2 = , , : = 2 , , < > 2 8 * * J ;.:.;.:.+.! ! l t B ! z z l z t q X - 9 . t 5.6.&.&.&.&.%.X.! O./ v ^ Q %.&.&.&.&.&.&.%.p > : 6 < 8 6 , * * 1 3 2 6 3 , ",
"< 3 6 8 2 * , 2 2 2 > > 1 > 1 3 > = s ;.:.:.;.#.O.! ^ t ^ <./ / B ! v c w 9 q 9 X ^ 0.&.&.&.&.&.&.o.L L v X.%.%.&.&.&.&.%.&.5.( 7 2 2 , , 3 < * * 2 2 7 7 7 3 2 ",
"< 8 3 7 : * , : ; * * * , , < 3 s { q.e.<./ x H v Q Q i H L } <.~ :.` B q 9 4 - X $.7.&.&.&.&.&.&.&.%.( $.5.&.&.&.&.%.5.&.$.( i < 2 , , > @ , > < 8 8 7 2 2 , 2 ",
"A < 3 , * * * 1 > * * > , , D { q.e.8.+.~ 7 % 2 i L x > % e g x ' #.N l X X X X q 6.5.&.&.&.&.&.&.&.&.&.&.%.&.&.&.&.&.%.^ h a 2 8 8 1 , , , > , 8 2 7 7 7 7 , , ",
"A , 3 2 = * * * ; 2 > 2 G { q.y.9.#.P 7 * = + + p f 0 1 : q X q I u 9 9 9 9 X 9 l 7.&.&.&.&.&.&.&.&.&.&.&.&.&.&.&.%.( t X . 7 7 8 8 6 1 3 3 3 < 2 3 7 7 7 7 = = ",
"3 < 3 2 7 * * : , 2 k  .r.w.<.( j , % 2 * * 7 * * , > 1 e q o - X X X X q w   9 X.6.%.%.5.%.&.&.&.&.&.5.&.5.&.X.L t 4 . . & 7 8 3 , 3 3 8 > < 8 3 < 2 5 5 5 = , ",
"< 3 3 2 , * 2 7 K >.w.e.8.} H : , ; ; % + % & + % 2 1 > 2 7 l q w t X 4 t 4 X X ! $.$.5.$.5.&.&.&.&.&.%.X.! c q . . . . . & 6 3 < < < 1 < , * < 7 > * * 7 7 = = ",
", , < 7 2 a P ,.q.e.:.( p ; 0 ; O : ; 0 $ % ; 2 2 2 < 6 A 8 T { #.| v 4 ` B o X q w l v ) X.X.O.) v l l 4 . . . . . . . . & 3 < 1 < < < < * @ > > > * 1 2 2 7 , ",
"< * 1 K t.t.y.q.<.^ f 0 : 2 2 0 % 2 : 2 ; ; % 2 ; 7 2 8 S W +.9.t.9.O.L ~ z o X X X l ) X.! I B I ) t   . . . . . . . . . . , 1 > 1 < 3 7 * > > @ @ * , , 2 = = ",
", 7 W u.u.y.1.T p > ; % 2 2 % 0 : : : $ ; : i ; * % 1 8 D I } } <...' ' B r o . . o y U #.1.1.#.` ) g . . . . . . . . . . . . * @ # < 1 8 2 @ > > 1 1 1 2 , ; , ",
", G 2.w.t.9.L , , : * % ; % 0 0 ; 2 : 0 ; % 0 ; * ; 1 , 3 Y T T | _ } } N o . . . . r T { } ` | c { t . . . . . . . . . . . . . & @ , 8 1 < > 1 < 1 , > > > * 2 ",
"* 8 G K P G 1 2 , 2 , 2 % % : ; 7 : : : ; ; 2 0 * : 2 3 3 D i I U ` ' B U o   . .   w ` B } I / z 4 4 . . . . . . . . . . . . . . & & : 1 1 1 1 1 1 < 2 % * ; 2 ",
", * * @ @ * ; , > 1 2 1 * ; 2 ; : = % = : i 2 : * 7 = < 2 8 8 h h h I B z . . . . . 4 I B B g z u . . . . . . . . . . . . . . . . . . & , > > > 2 > > * , , 2 a ",
", * * 2 2 , > 1 2 1 2 > 1 ; 2 1 , : * 7 5 7 2 * < 7 * 6 , 2 < I +.~ ,.9.{ o o . . . y :.q.} / O.v o . . . . . . . . . . . . . . . . . . * ; 2 2 3 2 ; , 2 > 2 a ",
"* , 1 a 2 8 2 ; 2 1 2 , ; 2 * ; % : , 6 7 7 7 , 7 , 2 , * > s ` <./ { ,.{ g . . . . N | ;.` | #./ w . . . . . . . . . . . . . . . . & * : , ; 2 2 2 2 2 2 2 : 8 ",
", 7 a a , , 2 , ; , s * , a , , , 2 7 2 8 8 8 2 6 8 > 1 , > G T } I I | ` z . . . . B ' ' z / { { t . . . . . . . . . . . . . . . . : ; > * ; , 2 2 1 ; ; @ * 8 ",
"* , ; * 2 ; + O * + , @ : , 1 * 2 a 2 8 7 7 3 3 2 8 6 8 8 6 j | T I B ` ` z . . . o U ' / c ^ T ..y . . . . . . . . . . . . . . . . = , , , 2 a 2 * 2 ; @ % , 1 ",
"2 ; ; * % 2 2 ; : + ; 2 , , 2 , < 7 8 8 > 2 3 8 2 1 < 3 7 > j { c ~ ~ ~ ` z . . . . B ' I I B I | r . . . . . . . . . . . . . . . . = < * , 1 8 2 , * ; : , 7 8 ",
"2 ; ; 0 % ; : ; : 2 % % 2 * , * 8 8 2 a 2 2 3 > 3 1 2 , < > 8 { h c | I ~ p . . . o z _ ! +.g L _ w . . . . . . . . . . . . . . . . . 5 < > 3 8 a > * 2 > , 2 1 ",
"0 2 ; ; 2 ; % $ % % $ % 2 > , > 8 8 < a 3 , 3 , 2 8 8 2 , @ < T v g ) I j : X . . . o B _ / q ~ B o . . . . . . . . . . . . . . . . . . : 1 A 6 2 1 , 3 8 ; * * ",
"; i ; % ; : 0 $ $ ; 0 2 2 , 3 8 S a < 8 8 * , 2 3 , 8 6 < @ > c ` l B I 2 , : . . . . y ~ c v { h . . . . . . . . . . . . . . . . . . . . & 7 7 * & ; , , O * @ ",
"0 : 0 $ 2 ; 0 % ; % 2 : 7 7 a A 8 8 6 3 3 3 8 3 , 3 3 1 3 3 > J ' U ` G 2 ; * X . . . q U / T ` h . . . . . . . . . . . . . . . . . . . . . . . X & * ; : > 2 2 ",
"; ; 0 ; 0 % % ; 0 i % % @ 2 D 8 1 3 3 2 < 2 , 2 8 3 8 8 8 3 , c ` ` } p , % . . . . . . c } } / N . . . . . . . . . . . . . . . . . . . . . . . . X & & * : ; , ",
"% 0 ; ; 2 : 2 % % i : * % 6 , < A 6 > , 2 , * , 3 2 8 8 8 < s I B _ ` g @ * . . . . . . z / ~ c _ o . . . . . . . . . . . . . . . . . . . . . . . . . . - * % * ",
", 2 % ; 2 % 2 * ; 2 7 * , : < 3 8 6 < @ @ , 7 , 2 3 3 < 8 6 H U g z / p * @ & . . . . X z B g c ' o . . . . . . . . . . . . . . . . . . . . . . . . . . : , > @ ",
"2 2 * , * * * 7 7 : , : , , 7 < 8 , * * > , 6 7 a 2 2 , A D T c v z ' p @ @ = o . . . . c / u v B B 4 . . . . . . . . . . . . . . . . . . . . . . . . . 4 = : @ ",
": 2 : * = , 7 = a 2 * 2 7 , , , 6 , > , 3 2 2 7 8 , 6 < 3 a u x B c I p > * * o . . . o N T B I g h w . . . . . . . . . . . . . . . . . . . . . . . . . . . & , ",
", * * * * , , 2 a 2 , 2 > < 2 = : = 6 1 3 7 6 7 , * 3 3 < p I I g U / 7 , , # * . . . . g ` I h ( L 4 . . . . . . . . . . . . . . . . . . . . . . . . . 5 : * : ",
": * 2 2 , : 7 i a 2 2 S < # < : : 6 < 3 2 7 7 8 2 * 8 3 7 I I B ` z g : > > < , & . . o t z c / B I c q q o . . . . . . . . . . . . . . . . . . . . . 4 : , > 7 ",
"2 , , 2 , * 6 7 2 2 8 6 8 8 8 a 2 , 6 8 2 8 8 7 2 , s j l l l c U / I a 1 > 1 8 D 6 : 7 B / _ U z c z l z d : : & & & . 5 5 5 = : - . & . . . . & & = , * * < * ",
"6 7 * , 7 < < 2 2 3 8 , 3 1 3 , , 7 8 , , , : , 2 , i k / I } ~ g p p 2 > * 2 2 > , , D 5 g p j / ' ~ I g , 7 2 , , , * 7 6 2 8 8 2 6 7 = = : 2 ; ; : < 6 * 2 * ",
"< 8 < , < , , , 6 8 2 3 1 < , > , , 6 < * > , 2 2 2 7 7 8 7 f a * + ; 2 2 * * * * > , 8 7 : @ > s f 7 2 7 > , 6 , 3 6 , 2 2 2 2 6 2 3 2 * , , ; * , 2 , < 2 6 2 ",
", 8 7 < 2 2 , , 3 2 , 2 3 8 3 , @ > , * > > < 7 , : , 7 * , < * : + , 2 1 ; 6 , > > 6 < 2 < < 7 3 , < 2 6 2 2 8 3 , 2 , , , 8 8 2 , , , * 1 2 @ * , 2 < * , , > ",
", > < 2 , 6 , , , , , * 2 8 3 , @ , @ @ * * = 6 : : , = 2 6 3 > * @ @ + + , * * , , 6 8 , < , 8 3 , , 2 6 2 1 8 8 , 2 , , , , < < 3 > a 8 : : * , = , 7 , , , , ",
"* > * 6 * , , * * * @ * , < 3 8 > > , > < , 7 , * * 7 , 8 < > , @ 5 5 = @ 5 + = @ , 1 8 6 @ # , < , 2 < 3 7 8 8 6 < 7 2 , > > , , * 2 8 8 2 @ : , , > 2 2 , , < ",
", , * 2 * * = 7 6 5 = @ @ < 3 , , 1 , 2 , 2 * , @ > < , 8 < , 7 = 5 = * 5 6 + 7 < , 6 7 , @ > > , 7 7 7 < 6 8 6 6 , , 2 , * * * , : * , 2 s > * > : * , 2 2 > @ ",
"7 2 * : * , 5 : 7 = * 6 1 > , , > > : 7 , 7 @ @ @ < , * * : * 7 = @ * * @ , * = < * , < @ > 3 3 , 2 a 2 < 8 6 8 6 , : 2 3 , 1 @ * 2 2 2 2 1 , ; , * 2 , 2 2 , * ",
": * % : * , 2 7 7 5 2 2 2 2 , # > > 1 1 * @ * > , 8 , > > * * = 7 * @ % @ * , * , > , , > 3 3 6 , 2 7 * < 7 6 6 < @ 6 * * 2 1 > * > > 1 2 * 0 2 2 , > , , ; , : ",
": * 2 2 , = 8 8 8 8 8 a , > @ @ 3 3 3 2 : * * 7 6 8 , > * = 7 @ 2 1 , , , * , 2 , , , , , 3 < < 7 a 7 * 6 8 6 , = * * @ , , 1 1 1 1 < A , 8 a 2 , ; ; , 2 , 1 2 ",
"6 2 , 2 * * a 2 7 6 8 2 3 3 , > > > 2 ; , = , 8 , , > * = = 7 * 8 0 2 1 ; > 1 2 * 2 7 , 2 8 < 1 8 8 7 2 < 6 < 6 6 , = = ; > 1 1 < < S A @ 8 D a 2 2 2 , * > , * ",
"7 7 2 2 7 2 2 7 7 7 8 2 8 3 3 , > > * % 7 < 7 A 6 , > : 5 6 & 7 D 0 1 > > 1 2 1 , 6 < 6 6 2 < , , 2 : , 2 7 6 , 6 = @ * , , > > # 1 1 1 > * , 2 , : , , > % 2 % "
};
