/* XPM */
static char *result[] = {
/* columns rows colors chars-per-pixel */
"80 80 49 1 ",
"  c #051706",
". c #051C04",
"X c #081E06",
"o c #071E09",
"O c #091E09",
"+ c #062203",
"@ c #0A2206",
"# c #0A2907",
"$ c #0D240B",
"% c #0E290C",
"& c #11260D",
"* c #122A0E",
"= c #14310F",
"- c #0F2510",
"; c #112611",
": c #182513",
"> c #152C12",
", c #192E15",
"< c #172E18",
"1 c #1A2E19",
"2 c #163114",
"3 c #193216",
"4 c #1C3916",
"5 c #173418",
"6 c #1D341A",
"7 c #17381B",
"8 c #1E391B",
"9 c #203B17",
"0 c #21361D",
"q c #213A1E",
"w c #1F3520",
"e c #1F3C20",
"r c #213621",
"t c #243C22",
"y c #293D24",
"u c #273D28",
"i c #293F2A",
"p c #23411E",
"a c #29451F",
"s c #264123",
"d c #294226",
"f c #2C4927",
"g c #2D442A",
"h c #2D4A2B",
"j c #30452C",
"k c #314A2D",
"l c #354D32",
"z c #384E35",
"x c #3E563C",
/* pixels */
"6q30333458544>2*g1>>3,>6$*0>>;>,8d3636>$0@t,tq52,36030q030>$>10*3<>1,,66,5><3w3t",
"3q036123qq88882>&0$3s>31>1X0>>,w;>6%,6w6>6@,3>%2wt319,,34*6$61q*3>5>2t8t66638653",
"61d>6>6133,>3s2166%2y-%6,0>g6%>%;6$*5>3>6311>*2;*063,0=0d3>&>$>q>,6%,>w6>>66,563",
",&6,1<t>3>-2462>1r6,5%6r3g1632<,55>$>$d6$,y01>5td0&0q=0982&6,6$6$>>6>$%56>t3wy60",
"1r>r$16O1,&*=830631>>>4*i313&30,5656>6>;3t;>6tt5>,&$q,9q>6>t3*&k$162,568w6>5t6&6",
"u6$1u1$r<&,&$33*363,%31*&>3g6*%316t6<,t5%6>>65,t1$*3=3@:>r>:O1>g6,$26sg2w6,w3&66",
"0,q11i,t1&>16qt,>q>22>230qpq,*t3<,3,668;2<5t3t;5*126q0&6%11<$1$:,157558et><>i-i1",
"q0061>>11&>6>,&&632335***q&*>t2>5336>3>5;>,>t32>,36q0q>,r:<u:wr:>824+fs7t8wwwr1t",
"0q1;;gq3q66>>*,*>36*445688>g3,3>36w,y>,56w336<w>,t,%&00,t>:<o-:O:0===a44t566,2tk",
"s661>;0&1>>60,61*3226>2qdq*gtr6r6>>;3w6536;5t6>>5w$t$,u:><<<o<rwy,,099p=ht$65t38",
"gq00r6g,>>z6@1y>>$324*>q*@%2,>>%tt2,8%tw,dy333%383,tr10w:uOuw--gOj0fs=pa3q8e6488",
"qa6r,r33*3>,$6*3*$q3t$>**6>6656t36557ws62605>6,>-31O<6 06u;>$<6-q$>se89233s2868q",
"qp066>003**3*33*>$613>t;42ty6y55y;252>6tt803,033t,;$0@00$,63o>63@3s3eff23q3*3q44",
"9q4660033=*2q3q9>%*&$t>3,,>y,q@>8*w5t53>6,0>611,3656$&t661;6:>,84**07e85*%*a*06q",
"49t3,,8***y>q03,20>6>6$3$8>$3<t4>t8w63%11w,w3>00>t30$q3,>6$>d,,5308*8s2%=203999q",
"40q33>393393sp32,>y;6y%tw6w2686t;w2d306r>6O,,&>>$>6>t30131,6-yy43s3g5882240330:q",
"8896>03>>6>*@>*t$>>->t->*25qd81010&*,0,>:0u1:6$$;6t6*>**33,36t106234&0*24e830q,9",
"483*3*6@6y53>$t;03-<<-1,8=5%s88>33000t16i11rwt>>56t*08*08633qq04s4>2%33994000,,0",
"49085,6,>6>1*61$;6;6<<<3=e+s84t3q33>000g,y36,y%>%,>>34t33**6q8444p9q9939090iy,,q",
"330d662y$636,$t<r;:$:$>629=988t%003>z064&1r38wt$>;,3*0333qq466q9*844330q=30,,,00",
"4033>>%w 3%r<:<r>wO16e1w24sf86d%=3s04qg6,q1,>>>>65>t*2s34331400p432=5>683,366166",
"3366;6<si>t61<1<w<<<-<tw8sp444qq09344qqq30>@3,>5d,>3%@q90334362*4844t>2,>>36q,36",
"3=5t,$>5%>$> u6r<-16w$o>8df22q253349p49p3100>,6>,2>23>>823>>>2922442q$q>13*3363t",
"3qq25662;>,6t1&t6w.166$>s#pe4>2s33,t9044063465,%wwt2t,2*463*>,8452hp8>kq330q2>3,",
"3q992>255>&&6,0,<,>666>0>q59q4%#90:999>9q64383,>3,,6,3q4833>13&442558>*333333>>3",
"3q3*>25wt3&6>0,;$6tr3@1,f>h8*2280,9q099aq3*33*>>,0&r>yq440>&$,5>%%#2=%33339*q403",
"$f3q2y2,1*0t1*q*0161,3ss0,61*6540::>=399qq62023,$;56>,5426>6>66*@q6,384q33pg4t6*",
"*333323331&&,>*3>,6yq3q4=>,0358q=09>=39q4*$3*3365><6,3>546>1X$*>6>63>*k60*q8*336",
"33*3103t>61*3qt31ttq56s2=0*1398>r00,,y3q62>%6t>,6t2>5y2s3>1>31*&0&1*0,&10*d>t06d",
",303>*1>*31y3382&p666s5e0qt8399q0r01,009636t><55>,22856eq3,>01;y,$q,30,030q*0,0>",
"0**,0t;>0$&363q03428qq2828>2q43*,,113090365;51,,t%>;3;>3161>&&&10>*=*0qd>tt3>>0&",
"y6303tq6y0>30393034850p5424*0033*30r0qq03>5<o68,r,5563*>>&&0>&:$30*03,*q000>k6,0",
"60g6,q&006%6q06663463448f**>,>>>9001:0,933*3-t6>>6-3g&0&*0116>11&,133%390q3g&t60",
"y60&&06>g6;&3q>q353232%58%4>5,2>*31,,0&03,3&>><et66%,,,,00$1$>,:&30*=*9999>6q&>x",
"qk03$>r&6>>16>11,6&0>%3388s3%34539>346303>>>6;><<>g 13g>@:6>-o1001>394a=4f*33s00",
"0pq&0r,66>tt>$1;13*11>q,8%*t26s8==,&698d000,w<5>w%ww,&>1,><u6:>&*y,y4app480634p3",
"d3s3&,06,>>>,;6t6&1*6&6*38$2>2@8=*33q2*6:33y1*>*-6>,,8316<r<-<w<>&&3f9=8q248833q",
"p48306,01&O603%>g,>>3>y326**2%8>233$6t4*,0$9,133w6>&,>1,;-u:<-6,>,>1%pd426q>63t3",
"49s33&00,,1*03*>01>&*,q*3*628t8w38634q3,:9::>,*3>863,%>><r-w<<t<1666390q>*2842t4",
"43d03131&,0333*4f>>>>$*3334$62ew%>q3*q63q:q0,>,3>586>>1,>w;<<r66*6&kq4s5>*5t3,68",
"88083>10w5,58%88*1>016&8%$>3><-t6<5>6y6y>&3,&30*11635>r6,1:q:0y,6332*03>*6606063",
"288q134*>>;*t8>s836,00$z;3tw<e5ey6>,yq13,t&0*&1&*;6>1>>%>>0030006232=*4*8qq0102,",
"p4q2,O>66>,044>,$q*3$&6y3-@6%ty666631@t63&$t06.0&&>1363100&>00qqq8854834q301q0,9",
"s286>>,>>626t,8>**0,$0@&65>56wwst>t>0>0661k61y>0q3636%t316*3y009q8826q603q0yyy,*",
"4806>$;6336101$35>;6,1y,%357%d8=6t93060qi,d0*3&0>&,y*>633td1000q82p8q*3q043,01,,",
"48936>t1q56>&0110>;<$&>O>65>589pq633603k3y,*&u0>611>>>qt>5453,04525446>qq2>,,0,:",
"33303>*%1,Or&>i<o>:wO-11w622app2sq$36034pps3,,0&31336>tt63854898=f584*2>32>q6666",
"4>863>>3621ut>uw-u<w1>:t@y4dp=p83qs06q33s003,>6>@>z0$131t,5>22252%8ss@34>#>*3010",
"30q2>2,;%,*@<wowrr:>--uOr$&dp=28,6939q3s4930,0,>*13*,1,>,,166%6>**52ds#=2558t,>>",
"26q42>5332;$wouwOrrr-Or<>1t%8fe43qq*0q3q4p3,,,600&&6y>g3,1;>1><>%>5d2525775*6,>r",
"2>3*8>3565,w;;w<rr1r<<1w16>65844*%*q*q304t030,636,,>*qq3,6r>:w$$>;>577225585%;<6",
"3$3*%$;2<56d>w>;>0&,tw,,@q*,3d8*,3000g3q4q311>52***>3*%3q,ry>tr$63tw8;5>8%5>65,d",
"6,>56<28555,e5w5,1,y,q,>qq3q,94238q300,04q83133432>*4q0d,6>&,66$tt$2><3ywt;2t36g",
"2t6g%yw;66,><6>3*>,,000s9,q>,3036t630::=98t0$0*2343>*33s30613t>$2;$>%t>3,26s;y,t",
"ttd66666t,x$3u,>6000qy56q0*6*333q58r0,6t83q53&234>5488q0*16;y%w>2$t,5->5583;5;%t",
",2,>t$,.3%0><%6%6d0000q806pqq03pqq8y003894qq,14**q3633sqt6313;2.t>,3052t6,w>>>58",
"w5<<-t6:1$>r16>t26tt>q8q242s6*4033330,,q946t33*3>5>633**6&<6$;5;*&,3,>6w6<,>,,wt",
"wo6w-1w<<t>-6,8.f83q86q*q25*84303>>361q60q336**6>8%6j,y1*r<:w:6<>30,8=8hd>3q>633",
"w<5w<----: %6>5*aq3t23335sq20*4222368,136*30>,&3>w>%*,&,3wo1<>-w$&q*4#ft6g%r5,3%",
"-u:5-:w$;rww340sdq3sq@88q2848*0****>21t3>39a3*&,35d&g@3rX611---<O>,,=2p88;56>.5>",
"<wwor<r<1OrOg6dq4p8380d82q42qq*8*3303>>t3qq33&6>,%w.3*>>wO<<u-<-q1y3ppp48>353,6w",
"wOw<r><-rrOr*1sq43042q3qsqtts33q031>6%,6qqq30>r%225w1y001<w6<-w<033fpa=482*>>>>>",
"$u<O6r0$;u1&6y34s0>490@>82t8q836=33,&$1,*,0,0,,2%>2%&O>&1>rO:3<u.>3q=4p48*,>31@<",
";0>61&1&610&<$44p38%%>g1q8829300>4333*>>0*1*$qtt<t3>$6$t0>65t$160**q=pss%3336<5$",
"11,3,@*g01>0y3==f3*3=8,3u384q91>q2>**=,*3>,q%6tt>,36>%11&13,&03=0*9&d3q36*336q6$",
"60111,0,t613s30303>4p03>0390sp0,>8223=>36t3qt<;>2,w00$>03>>*>3y3&=9:90q336>>>3>d",
"6*&>>1,3yq64340>,164q000>*qa=81,6=2>64*2;t,8326>355t&t13*3130,0*>09>q&333633t,2>",
"1*t63,0tq13s4*8113543000,*f330,;%282,3525>56s*qq,63;0>q,,*,310tt0q0,,*0,16>5,t$u",
"qq*3>%q630688dss0,0d4qsy06q634821,>>8>6sht288333q333y66*s03$p0q,6g4633,6t>8>,33*",
"q333q03303958>8>4q3333,31000=466;;4>5$*0#8*l3d883***6*t424=*q03sq>qdt6t2>>%q02q$",
"308333338p6s542433q3=33036q6q409>$5,82&>23*q9>**34q*q*3q300363838866%>2536>*2432",
"*q4306440635t666>*323336316q*45*3$t56,q>>5t3q8303*34q33q433233t9333>>66>*684>33*",
"4*98333=,3=*3t>8*8***23,366*q042>:*&$0,,839d>43qq333q9,qq30353633q*fr,1>6,36>2>3",
"33%0&,3=,>*>4488**3236031>j3t333&0,,&0$0*s>08**3q093q,q090q355>33200t6$01,>95,28",
"31*0>>,09:,>%685225630*0$30qsq3,>,160yXg3ss34*243tq3399q933q2;>-362>6l>%>>31t65*",
"00>3>0,300&05>3425203y***34=%>30:>*1*0>>3$*3*240>3y309q9q0>3877>%26qu65>q>6,56,>",
">,&>>,01y0368t8@3>82&>&3,d,>3>&>i1**%,633*90288q330330939&q>,62*,2588@ty63613>,>",
"1>t0166ty06t4>2%qs8w>&,69q=3&00$3,,5>3>533*338543q1>0p,9=,,&63=8527f;tg<,>5,6,66",
"q313&&y600063t>8;52>30,q,=3=,:u&;7e5>,5336334885yq00*p9993>3>2858efh#glt25q5>,3,",
"003qqyt800q4s28>25>>y3ddq3&&0y$0s58**525*s29q84236,0s393q:>$q6>#5e=#2t%3;,>2%%t."
};
